<?xml version="1.0" standalone="no"?><!-- Generator: Gravit.io --><svg xmlns="http://www.w3.org/2000/svg" xmlns:xlink="http://www.w3.org/1999/xlink" style="isolation:isolate" viewBox="0 0 110 129.47" width="110" height="129.47"><defs><clipPath id="_clipPath_HFtpczojc0BUyG6qjvAJLEQrLxE15qXN"><rect width="110" height="129.47"/></clipPath></defs><g clip-path="url(#_clipPath_HFtpczojc0BUyG6qjvAJLEQrLxE15qXN)"><path d=" M 18.68 53.1 C 21.8 67.33 36.09 76.33 49.01 73.8 C 39.19 71.04 30.95 62.44 28.44 50.95 C 25.92 39.47 29.81 28.21 37.58 21.6 C 24.78 24.7 15.56 38.85 18.68 53.1 Z " fill="rgb(131,158,200)"/><path d=" M 99.23 99.42 C 113.49 74.24 104.29 42.01 81.85 28.62 C 92.7 45.72 93.48 69.34 81.98 89.65 C 70.47 109.95 49.81 121.43 29.57 120.91 C 52.58 133.28 84.97 124.6 99.23 99.42 L 99.23 99.42 Z " fill="rgb(0,86,149)"/><path d=" M 48.5 21.26 C 36.55 26.1 30.84 39.91 34.97 50.8 C 35.91 41.83 42.17 33.36 51.82 29.45 C 61.46 25.55 71.85 27.25 78.77 33.05 C 74.16 22.35 60.45 16.42 48.5 21.26 Z " fill="rgb(250,184,22)"/><path d=" M 25.08 87.73 C 41.89 94.76 61.36 86.59 68.04 71.55 C 58.17 79.62 43.46 81.88 29.9 76.21 C 16.33 70.54 7.6 58.48 6.42 45.79 C 0.42 61.1 8.27 80.7 25.08 87.73 Z " fill="rgb(103,139,187)"/><path d=" M 46.88 110.37 C 68.3 105.96 82.06 84.69 78.51 65.27 C 74.18 79.94 61.13 92.13 43.85 95.69 C 26.58 99.25 9.77 93.2 0 81.43 C 4.42 100.68 25.46 114.78 46.88 110.37 Z " fill="rgb(73,121,175)"/></g></svg>