<?xml version="1.0" encoding="UTF-8"?>
<svg width="359px" height="130px" viewBox="0 0 359 130" version="1.1" xmlns="http://www.w3.org/2000/svg" xmlns:xlink="http://www.w3.org/1999/xlink">
    <!-- Generator: Sketch 43.2 (39069) - http://www.bohemiancoding.com/sketch -->
    <title>cdl_logo</title>
    <desc>Created with Sketch.</desc>
    <defs>
        <polygon id="path-1" points="0 0.5 358.3 0.5 358.3 130 0 130"></polygon>
        <polygon id="path-3" points="0 0.5 358.3 0.5 358.3 130 0 130"></polygon>
        <polygon id="path-5" points="0 0.5 358.3 0.5 358.3 130 0 130"></polygon>
        <polygon id="path-7" points="0 0.5 358.3 0.5 358.3 130 0 130"></polygon>
    </defs>
    <g id="Page-1" stroke="none" stroke-width="1" fill="none" fill-rule="evenodd">
        <g id="cdl_logo">
            <path d="M149.8,0.8 L151,0.8 L151,8.9 C151,11.9 152.4,13.1 154.8,13.1 C157.2,13.1 158.7,11.9 158.6,8.9 L158.6,0.8 L159.8,0.8 L159.8,9.1 C159.8,11.8 158.4,14.1 154.7,14.1 C151.1,14.1 149.6,11.8 149.6,9.1 L149.6,0.8 L149.8,0.8 Z M163.7,4.4 L164.8,4.4 L164.8,6 C165.2,4.9 166.5,4.1 167.8,4.1 C170.4,4.1 171.2,5.5 171.2,7.7 L171.2,13.8 L170.1,13.8 L170.1,8 C170.1,6.4 169.6,5.2 167.7,5.2 C165.9,5.2 164.8,6.6 164.7,8.4 L164.7,13.9 L163.6,13.9 L163.6,4.4 L163.7,4.4 Z M175.1,0.8 L176.2,0.8 L176.2,2.6 L175.1,2.6 L175.1,0.8 Z M175.1,4.4 L176.2,4.4 L176.2,13.8 L175.1,13.8 L175.1,4.4 Z M179,4.4 L180.3,4.4 L183.2,12.7 L183.3,12.7 L186.2,4.4 L187.4,4.4 L183.8,13.8 L182.6,13.8 L179,4.4 L179,4.4 Z M190.7,9.4 C190.7,11.1 191.6,13.1 193.8,13.1 C195.5,13.1 196.4,12.1 196.8,10.7 L197.9,10.7 C197.4,12.8 196.2,14.1 193.8,14.1 C190.8,14.1 189.5,11.8 189.5,9.1 C189.5,6.6 190.8,4.1 193.8,4.1 C196.8,4.1 198,6.7 197.9,9.4 L190.7,9.4 L190.7,9.4 Z M196.8,8.5 C196.7,6.8 195.7,5.1 193.8,5.1 C191.9,5.1 190.9,6.7 190.7,8.5 L196.8,8.5 Z M201.1,4.4 L202.2,4.4 L202.2,6.6 C202.8,5.1 204.1,4.2 205.8,4.3 L205.8,5.5 C203.7,5.4 202.3,6.9 202.3,8.9 L202.3,13.9 L201.1,13.9 L201.1,4.4 L201.1,4.4 Z M214,7.2 C213.9,5.8 212.8,5.1 211.5,5.1 C210.5,5.1 209.3,5.5 209.3,6.7 C209.3,7.7 210.5,8.1 211.3,8.3 L212.8,8.6 C214.1,8.8 215.5,9.6 215.5,11.2 C215.5,13.2 213.5,14 211.7,14 C209.5,14 208,13 207.8,10.7 L208.9,10.7 C209,12.3 210.1,13.1 211.7,13.1 C212.8,13.1 214.3,12.6 214.3,11.3 C214.3,10.2 213.3,9.8 212.2,9.6 L210.7,9.3 C209.2,8.9 208.1,8.4 208.1,6.8 C208.1,4.9 210,4.2 211.6,4.2 C213.5,4.2 215,5.2 215,7.2 L214,7.2 L214,7.2 Z M218.7,0.8 L219.8,0.8 L219.8,2.6 L218.7,2.6 L218.7,0.8 Z M218.7,4.4 L219.8,4.4 L219.8,13.8 L218.7,13.8 L218.7,4.4 Z M225.5,4.4 L227.4,4.4 L227.4,5.4 L225.5,5.4 L225.5,11.8 C225.5,12.5 225.6,13 226.4,13 C226.7,13 227.1,13 227.4,12.9 L227.4,13.9 L226.4,13.9 C224.9,13.9 224.3,13.4 224.4,11.8 L224.4,5.4 L222.8,5.4 L222.8,4.4 L224.4,4.4 L224.4,1.6 L225.6,1.6 L225.6,4.4 L225.5,4.4 Z M229.5,4.4 L230.7,4.4 L233.8,12.4 L236.7,4.4 L237.8,4.4 L233.7,15.3 C233,16.9 232.7,17.3 231.2,17.3 C230.7,17.3 230.5,17.3 230.3,17.2 L230.3,16.2 C230.6,16.3 230.8,16.3 231.1,16.3 C232.1,16.3 232.4,15.7 232.7,14.8 L233.1,13.7 L229.5,4.4 L229.5,4.4 Z M255.7,9.1 C255.7,11.8 254.1,14.1 251.2,14.1 C248.3,14.1 246.7,11.8 246.7,9.1 C246.7,6.4 248.3,4.1 251.2,4.1 C254.1,4.1 255.7,6.4 255.7,9.1 L255.7,9.1 Z M247.9,9.1 C247.9,11.1 249,13.1 251.2,13.1 C253.4,13.1 254.5,11.1 254.5,9.1 C254.5,7.1 253.4,5.1 251.2,5.1 C249,5.1 247.9,7.1 247.9,9.1 Z M262.6,5.4 L260.7,5.4 L260.7,13.8 L259.6,13.8 L259.6,5.4 L258,5.4 L258,4.4 L259.6,4.4 L259.6,3.6 C259.6,2 260,0.8 261.9,0.8 C262.2,0.8 262.5,0.8 262.9,0.9 L262.9,1.9 C262.6,1.8 262.3,1.8 262.1,1.8 C260.8,1.8 260.9,2.6 260.8,3.6 L260.8,4.4 L262.7,4.4 L262.7,5.4 L262.6,5.4 Z M281.6,4.7 C281.2,2.7 279.5,1.5 277.6,1.5 C274.2,1.5 272.7,4.4 272.7,7.2 C272.7,10 274.2,12.9 277.6,12.9 C280,12.9 281.5,11 281.8,8.7 L283,8.7 C282.7,11.9 280.6,13.9 277.6,13.9 C273.5,13.9 271.5,10.7 271.5,7.1 C271.5,3.5 273.5,0.3 277.6,0.3 C280.1,0.3 282.5,1.8 282.8,4.5 L281.6,4.5 L281.6,4.7 Z M286.1,7.3 C286.2,5.1 287.8,4.1 289.9,4.1 C291.6,4.1 293.4,4.6 293.4,7.1 L293.4,12.1 C293.4,12.5 293.6,12.8 294.1,12.8 C294.2,12.8 294.4,12.8 294.5,12.7 L294.5,13.7 C294.2,13.8 294.1,13.8 293.8,13.8 C292.6,13.8 292.5,13.1 292.5,12.2 C291.7,13.4 290.9,14.1 289.1,14.1 C287.4,14.1 285.9,13.2 285.9,11.3 C285.9,8.7 288.5,8.6 291,8.3 C291.9,8.2 292.5,8.1 292.5,7 C292.5,5.4 291.4,5.1 290,5.1 C288.6,5.1 287.5,5.8 287.5,7.3 L286.1,7.3 L286.1,7.3 Z M292.3,8.7 C292.1,9 291.6,9.1 291.3,9.1 C289.3,9.4 286.9,9.4 286.9,11.3 C286.9,12.4 287.9,13.2 289,13.2 C290.8,13.2 292.3,12.1 292.3,10.2 L292.3,8.7 L292.3,8.7 Z M297.3,0.8 L298.4,0.8 L298.4,13.8 L297.3,13.8 L297.3,0.8 Z M302.2,0.8 L303.3,0.8 L303.3,2.6 L302.2,2.6 L302.2,0.8 Z M302.2,4.4 L303.3,4.4 L303.3,13.8 L302.2,13.8 L302.2,4.4 Z M310.8,5.4 L308.9,5.4 L308.9,13.8 L307.7,13.8 L307.7,5.4 L306.1,5.4 L306.1,4.4 L307.7,4.4 L307.7,3.6 C307.7,2 308.1,0.8 310,0.8 C310.3,0.8 310.6,0.8 311,0.9 L311,1.9 C310.7,1.8 310.4,1.8 310.2,1.8 C308.9,1.8 309,2.6 308.9,3.6 L308.9,4.4 L310.8,4.4 L310.8,5.4 L310.8,5.4 Z M321.8,9.1 C321.8,11.8 320.2,14.1 317.3,14.1 C314.4,14.1 312.8,11.8 312.8,9.1 C312.8,6.4 314.4,4.1 317.3,4.1 C320.2,4.1 321.8,6.4 321.8,9.1 L321.8,9.1 Z M314.1,9.1 C314.1,11.1 315.2,13.1 317.4,13.1 C319.6,13.1 320.7,11.1 320.7,9.1 C320.7,7.1 319.6,5.1 317.4,5.1 C315.2,5.1 314.1,7.1 314.1,9.1 Z M325.1,4.4 L326.2,4.4 L326.2,6.6 C326.8,5.1 328.1,4.2 329.8,4.3 L329.8,5.5 C327.7,5.4 326.3,6.9 326.3,8.9 L326.3,13.9 L325.2,13.9 L325.2,4.4 L325.1,4.4 Z M332.7,4.4 L333.8,4.4 L333.8,6 C334.2,4.9 335.5,4.1 336.8,4.1 C339.4,4.1 340.2,5.5 340.2,7.7 L340.2,13.8 L339.1,13.8 L339.1,8 C339.1,6.4 338.6,5.2 336.7,5.2 C334.9,5.2 333.8,6.6 333.7,8.4 L333.7,13.9 L332.6,13.9 L332.6,4.4 L332.7,4.4 Z M344.1,0.8 L345.2,0.8 L345.2,2.6 L344.1,2.6 L344.1,0.8 Z M344.1,4.4 L345.2,4.4 L345.2,13.8 L344.1,13.8 L344.1,4.4 Z M348.9,7.3 C349,5.1 350.6,4.1 352.7,4.1 C354.4,4.1 356.2,4.6 356.2,7.1 L356.2,12.1 C356.2,12.5 356.4,12.8 356.9,12.8 C357,12.8 357.2,12.8 357.3,12.7 L357.3,13.7 C357,13.8 356.9,13.8 356.6,13.8 C355.4,13.8 355.3,13.1 355.3,12.2 C354.5,13.4 353.7,14.1 351.9,14.1 C350.2,14.1 348.7,13.2 348.7,11.3 C348.7,8.7 351.3,8.6 353.8,8.3 C354.7,8.2 355.3,8.1 355.3,7 C355.3,5.4 354.2,5.1 352.8,5.1 C351.4,5.1 350.3,5.8 350.3,7.3 L348.9,7.3 L348.9,7.3 Z M355,8.7 C354.8,9 354.3,9.1 354,9.1 C352,9.4 349.6,9.4 349.6,11.3 C349.6,12.4 350.6,13.2 351.7,13.2 C353.5,13.2 355,12.1 355,10.2 L355,8.7 L355,8.7 Z" id="Shape" fill="#808285" fill-rule="nonzero"></path>
            <g id="Clipped">
                <mask id="mask-2" fill="white">
                    <use xlink:href="#path-1"></use>
                </mask>
                <g id="SVGID_1_"></g>
                <path d="M18.7,53.6 C21.8,67.9 36.1,76.9 49,74.3 C39.2,71.6 31,63 28.4,51.5 C25.9,40 29.8,28.8 37.5,22.1 C24.8,25.2 15.6,39.4 18.7,53.6" id="Shape" fill="#839EC8" fill-rule="nonzero" mask="url(#mask-2)"></path>
            </g>
            <g id="Clipped">
                <mask id="mask-4" fill="white">
                    <use xlink:href="#path-3"></use>
                </mask>
                <g id="SVGID_1_"></g>
                <path d="M99.2,100 C113.5,74.8 104.3,42.6 81.8,29.2 C92.6,46.3 93.4,69.9 81.9,90.2 C70.4,110.5 49.7,122 29.5,121.5 C52.6,133.8 85,125.1 99.2,100" id="Shape" fill="#005595" fill-rule="nonzero" mask="url(#mask-4)"></path>
            </g>
            <path d="M48.5,21.8 C36.5,26.6 30.8,40.4 35,51.3 C35.9,42.3 42.2,33.9 51.8,30 C61.4,26.1 71.8,27.8 78.8,33.6 C74.2,22.9 60.4,17 48.5,21.8" id="Shape" fill="#FAB816" fill-rule="nonzero"></path>
            <g id="Clipped">
                <mask id="mask-6" fill="white">
                    <use xlink:href="#path-5"></use>
                </mask>
                <g id="SVGID_3_"></g>
                <path d="M25.1,88.3 C41.9,95.3 61.4,87.2 68.1,72.1 C58.2,80.2 43.5,82.4 30,76.8 C16.3,71.1 7.6,59 6.4,46.3 C0.4,61.6 8.3,81.2 25.1,88.3" id="Shape" fill="#678BBB" fill-rule="nonzero" mask="url(#mask-6)"></path>
            </g>
            <g id="Clipped">
                <mask id="mask-8" fill="white">
                    <use xlink:href="#path-7"></use>
                </mask>
                <g id="SVGID_3_"></g>
                <path d="M46.9,110.9 C68.3,106.5 82.1,85.2 78.5,65.8 C74.2,80.5 61.1,92.7 43.8,96.2 C26.6,99.8 9.8,93.7 0,82 C4.4,101.2 25.5,115.3 46.9,110.9" id="Shape" fill="#4979AF" fill-rule="nonzero" mask="url(#mask-8)"></path>
            </g>
            <path d="M160.1,115.5 C159.6,113.2 157.7,111.9 155.6,111.9 C151.7,111.9 150,115.2 150,118.4 C150,121.6 151.6,124.9 155.6,124.9 C158.3,124.9 160.1,122.8 160.3,120.2 L161.7,120.2 C161.3,123.8 159,126.1 155.6,126.1 C150.9,126.1 148.6,122.4 148.6,118.4 C148.6,114.4 150.9,110.7 155.6,110.7 C158.4,110.7 161.2,112.4 161.5,115.5 L160.1,115.5 L160.1,115.5 Z M163.4,118.3 C163.5,115.8 165.3,114.7 167.7,114.7 C169.6,114.7 171.6,115.3 171.6,118.1 L171.6,123.8 C171.6,124.3 171.8,124.6 172.4,124.6 C172.5,124.6 172.7,124.6 172.8,124.5 L172.8,125.6 C172.5,125.7 172.3,125.7 172,125.7 C170.7,125.7 170.5,125 170.5,123.8 C169.6,125.2 168.7,126 166.6,126 C164.6,126 163,125 163,122.9 C163,119.9 165.9,119.8 168.7,119.5 C169.8,119.4 170.4,119.2 170.4,118.1 C170.4,116.3 169.1,115.9 167.6,115.9 C166,115.9 164.8,116.6 164.7,118.4 L163.4,118.4 L163.4,118.3 Z M170.4,119.9 C170.2,120.2 169.6,120.3 169.3,120.4 C167.1,120.8 164.3,120.8 164.3,122.9 C164.3,124.2 165.5,125 166.7,125 C168.7,125 170.4,123.7 170.4,121.7 L170.4,119.9 Z M174.3,111 L175.6,111 L175.6,125.8 L174.3,125.8 L174.3,111 Z M178.1,111 L179.4,111 L179.4,113.1 L178.1,113.1 L178.1,111 Z M178.1,115.1 L179.4,115.1 L179.4,125.8 L178.1,125.8 L178.1,115.1 Z M186.1,116.2 L184,116.2 L184,125.8 L182.7,125.8 L182.7,116.2 L180.9,116.2 L180.9,115.1 L182.7,115.1 L182.7,114.1 C182.7,112.3 183.2,111 185.3,111 C185.7,111 186,111 186.4,111.1 L186.4,112.2 C186.1,112.1 185.8,112.1 185.5,112.1 C184.1,112.1 184.1,113 184.1,114.2 L184.1,115.1 L186.2,115.1 L186.2,116.2 L186.1,116.2 Z M196.9,120.4 C196.9,123.5 195.1,126 191.9,126 C188.6,126 186.9,123.4 186.9,120.4 C186.9,117.3 188.7,114.8 191.9,114.8 C195.1,114.8 196.9,117.4 196.9,120.4 L196.9,120.4 Z M188.1,120.4 C188.1,122.7 189.3,124.9 191.8,124.9 C194.3,124.9 195.5,122.6 195.5,120.4 C195.5,118.1 194.3,115.9 191.8,115.9 C189.3,115.9 188.1,118.1 188.1,120.4 Z M198.8,115.1 L200,115.1 L200,117.6 C200.7,115.9 202.1,114.9 204,115 L204,116.3 C201.6,116.2 200,117.9 200,120.1 L200,125.8 L198.7,125.8 L198.7,115.1 L198.8,115.1 Z M205.7,115.1 L207,115.1 L207,116.9 C207.5,115.6 208.9,114.7 210.4,114.7 C213.4,114.7 214.3,116.3 214.3,118.8 L214.3,125.7 L213,125.7 L213,119 C213,117.2 212.4,115.8 210.3,115.8 C208.2,115.8 207,117.4 207,119.5 L207,125.7 L205.7,125.7 L205.7,115.1 L205.7,115.1 Z M216.8,111 L218.1,111 L218.1,113.1 L216.8,113.1 L216.8,111 Z M216.8,115.1 L218.1,115.1 L218.1,125.8 L216.8,125.8 L216.8,115.1 Z M220.5,118.3 C220.6,115.8 222.4,114.7 224.8,114.7 C226.7,114.7 228.7,115.3 228.7,118.1 L228.7,123.8 C228.7,124.3 228.9,124.6 229.5,124.6 C229.6,124.6 229.8,124.6 229.9,124.5 L229.9,125.6 C229.6,125.7 229.4,125.7 229.1,125.7 C227.8,125.7 227.6,125 227.6,123.8 C226.7,125.2 225.8,126 223.7,126 C221.7,126 220.1,125 220.1,122.9 C220.1,119.9 223,119.8 225.8,119.5 C226.9,119.4 227.5,119.2 227.5,118.1 C227.5,116.3 226.2,115.9 224.7,115.9 C223.1,115.9 221.9,116.6 221.8,118.4 L220.5,118.4 L220.5,118.3 Z M227.4,119.9 C227.2,120.2 226.6,120.3 226.3,120.4 C224.1,120.8 221.3,120.8 221.3,122.9 C221.3,124.2 222.5,125 223.7,125 C225.7,125 227.4,123.7 227.4,121.7 L227.4,119.9 Z M237.3,111 L242.4,111 C246.8,111.1 249.2,113.5 249.2,118.4 C249.2,123.2 246.9,125.7 242.4,125.8 L237.3,125.8 L237.3,111 L237.3,111 Z M238.7,124.5 L241.7,124.5 C245.9,124.5 247.8,122.7 247.8,118.3 C247.8,113.9 246,112.1 241.7,112.1 L238.7,112.1 L238.7,124.5 Z M251.2,111 L252.5,111 L252.5,113.1 L251.2,113.1 L251.2,111 Z M251.2,115.1 L252.5,115.1 L252.5,125.8 L251.2,125.8 L251.2,115.1 Z M264.1,124.9 C264.1,128.1 262.9,130 259.4,130 C257.3,130 255.2,129 255,126.8 L256.3,126.8 C256.6,128.4 258,128.9 259.4,128.9 C261.8,128.9 262.8,127.5 262.8,124.9 L262.8,123.5 C262.2,124.8 260.9,125.7 259.4,125.7 C256,125.7 254.6,123.3 254.6,120.2 C254.6,117.3 256.3,114.8 259.4,114.8 C261,114.8 262.3,115.8 262.8,117 L262.8,115.2 L264.1,115.2 L264.1,124.9 L264.1,124.9 Z M262.8,120.3 C262.8,118.2 261.8,115.9 259.4,115.9 C256.9,115.9 255.9,118.1 255.9,120.3 C255.9,122.5 257,124.5 259.4,124.5 C261.6,124.5 262.8,122.5 262.8,120.3 Z M266.6,111 L267.9,111 L267.9,113.1 L266.6,113.1 L266.6,111 Z M266.6,115.1 L267.9,115.1 L267.9,125.8 L266.6,125.8 L266.6,115.1 Z M272.4,115.1 L274.6,115.1 L274.6,116.2 L272.4,116.2 L272.4,123.4 C272.4,124.2 272.5,124.7 273.5,124.8 C273.9,124.8 274.2,124.8 274.6,124.7 L274.6,125.8 L273.4,125.8 C271.7,125.8 271.1,125.2 271.1,123.4 L271.1,116.1 L269.2,116.1 L269.2,115 L271.1,115 L271.1,111.8 L272.4,111.8 L272.4,115.1 L272.4,115.1 Z M276.4,118.3 C276.5,115.8 278.3,114.7 280.7,114.7 C282.6,114.7 284.6,115.3 284.6,118.1 L284.6,123.8 C284.6,124.3 284.8,124.6 285.4,124.6 C285.5,124.6 285.7,124.6 285.8,124.5 L285.8,125.6 C285.5,125.7 285.3,125.7 285,125.7 C283.7,125.7 283.5,125 283.5,123.8 C282.6,125.2 281.7,126 279.6,126 C277.6,126 276,125 276,122.9 C276,119.9 278.9,119.8 281.7,119.5 C282.8,119.4 283.4,119.2 283.4,118.1 C283.4,116.3 282.1,115.9 280.6,115.9 C279,115.9 277.8,116.6 277.7,118.4 L276.4,118.4 L276.4,118.3 Z M283.3,119.9 C283.1,120.2 282.5,120.3 282.2,120.4 C280,120.8 277.2,120.8 277.2,122.9 C277.2,124.2 278.4,125 279.6,125 C281.6,125 283.3,123.7 283.3,121.7 L283.3,119.9 L283.3,119.9 Z M287.2,111 L288.5,111 L288.5,125.8 L287.2,125.8 L287.2,111 Z M297,111 L298.4,111 L298.4,124.5 L306.7,124.5 L306.7,125.7 L297,125.7 L297,111 L297,111 Z M307.9,111 L309.2,111 L309.2,113.1 L307.9,113.1 L307.9,111 Z M307.9,115.1 L309.2,115.1 L309.2,125.8 L307.9,125.8 L307.9,115.1 Z M311.7,111 L313,111 L313,117.1 C313.6,115.6 315.1,114.8 316.7,114.8 C319.9,114.8 321.5,117.4 321.5,120.4 C321.5,123.4 320,126 316.7,126 C315,126 313.5,125.1 312.9,123.7 L312.9,125.7 L311.7,125.7 L311.7,111 L311.7,111 Z M316.7,115.9 C313.9,115.9 313,118.2 313,120.4 C313,122.6 314,124.9 316.7,124.9 C319.2,124.9 320.2,122.6 320.2,120.4 C320.2,118.2 319.2,115.9 316.7,115.9 Z M323.6,115.1 L324.8,115.1 L324.8,117.6 C325.5,115.9 326.9,114.9 328.8,115 L328.8,116.3 C326.4,116.2 324.8,117.9 324.8,120.1 L324.8,125.8 L323.5,125.8 L323.5,115.1 L323.6,115.1 Z M329.9,118.3 C330,115.8 331.8,114.7 334.2,114.7 C336.1,114.7 338.1,115.3 338.1,118.1 L338.1,123.8 C338.1,124.3 338.4,124.6 338.9,124.6 C339,124.6 339.2,124.6 339.3,124.5 L339.3,125.6 C339,125.7 338.8,125.7 338.5,125.7 C337.2,125.7 337,125 337,123.8 C336.1,125.2 335.2,126 333.1,126 C331.1,126 329.5,125 329.5,122.9 C329.5,119.9 332.4,119.8 335.2,119.5 C336.3,119.4 336.9,119.2 336.9,118.1 C336.9,116.3 335.6,115.9 334.1,115.9 C332.5,115.9 331.3,116.6 331.3,118.4 L329.9,118.4 L329.9,118.3 Z M336.9,119.9 C336.7,120.2 336.1,120.3 335.8,120.4 C333.6,120.8 330.8,120.8 330.8,122.9 C330.8,124.2 332,125 333.2,125 C335.2,125 336.9,123.7 336.9,121.7 L336.9,119.9 L336.9,119.9 Z M340.8,115.1 L342,115.1 L342,117.6 C342.7,115.9 344.1,114.9 346,115 L346,116.3 C343.6,116.2 342,117.9 342,120.1 L342,125.8 L340.7,125.8 L340.7,115.1 L340.8,115.1 Z M346.1,115.1 L347.5,115.1 L351,124.2 L354.3,115.1 L355.6,115.1 L351,127.4 C350.3,129.2 349.8,129.7 348.2,129.7 C347.7,129.7 347.4,129.7 347.2,129.6 L347.2,128.5 C347.5,128.6 347.8,128.6 348.1,128.6 C349.3,128.6 349.5,127.9 350,126.9 L350.5,125.7 L346.1,115.1 L346.1,115.1 Z" id="Shape" fill="#231F20" fill-rule="nonzero"></path>
            <path d="M202,51.2 C198.9,39.8 192.8,36.7 184.5,36.7 C169.5,36.7 162.5,50.1 162.5,64.1 C162.5,82.1 171.4,94.2 184.3,94.2 C194.1,94.2 199,88.8 204.1,78.4 L207.6,79.1 C206.3,84.4 204.2,92.2 202.6,95.9 C199.9,96.6 191.1,98.6 184.4,98.6 C158.4,98.6 148,82 148,66.3 C148,47.1 163.1,32.3 186.1,32.3 C194.4,32.3 200.9,34.3 203.7,34.8 C204.5,40.2 204.9,44.5 205.5,50.6 L202,51.2 L202,51.2 Z M254.3,33.7 C265.5,33.7 275.5,36.1 282,42.4 C286.6,46.8 290.4,54 290.4,62.7 C290.4,86.7 272,97.1 249,97.1 L224.3,97.1 L224.3,94 C231.9,93.4 232.7,92.7 232.7,82.2 L232.7,48.6 C232.7,38.1 231.9,37.4 225.1,36.8 L225.1,33.7 L254.3,33.7 L254.3,33.7 Z M245.4,81.6 C245.4,90.6 246.4,92.7 253.4,92.7 C267.4,92.7 276.1,81.8 276.1,65.4 C276.1,44.4 265.5,37.9 251.6,37.9 C248.8,37.9 246.6,38.2 246,38.6 C245.4,39 245.3,41 245.3,43.7 L245.3,81.6 L245.4,81.6 Z M329.8,81.8 C329.8,88.9 330.2,91.1 332.2,91.9 C333.9,92.6 336.5,92.7 339.5,92.7 C343.3,92.7 347.8,92.1 350,89.7 C351.6,87.8 353.1,84.7 354.7,80 L358.2,80.7 C357.6,84.5 355.7,94.4 354.8,97.1 L308.3,97.1 L308.3,94 C316.3,93.4 317.1,92.7 317.1,82.2 L317.1,48.6 C317.1,38.1 316.3,37.4 308.9,36.8 L308.9,33.7 L338.2,33.7 L338.2,36.8 C330.6,37.4 329.8,38.1 329.8,48.6 L329.8,81.8 L329.8,81.8 Z" id="Shape" fill="#000000" fill-rule="nonzero"></path>
        </g>
    </g>
</svg>