<?xml version="1.0" standalone="no"?><!-- Generator: Gravit.io --><svg xmlns="http://www.w3.org/2000/svg" xmlns:xlink="http://www.w3.org/1999/xlink" style="isolation:isolate" viewBox="0 0 36 40.082" width="36" height="40.082"><defs><clipPath id="_clipPath_qM722hbIgfoy7aOhJu5hOPWciCLwQ3Uc"><rect width="36" height="40.082"/></clipPath></defs><g clip-path="url(#_clipPath_qM722hbIgfoy7aOhJu5hOPWciCLwQ3Uc)"><g><path d=" M 24.102 38.284 C 24.094 38.227 23.894 35.246 22.515 31.787 C 21.128 28.325 19.179 26.334 19.124 26.275 C 18.804 25.947 18.377 25.783 17.958 25.777 L 17.958 25.777 L 17.953 25.777 L 17.947 25.777 L 17.947 25.777 C 17.528 25.783 17.101 25.947 16.781 26.275 C 16.727 26.334 14.777 28.325 13.39 31.787 C 12.011 35.246 11.81 38.227 11.804 38.284 L 11.796 38.664 L 11.796 38.668 L 11.796 38.668 L 11.796 38.676 L 11.8 38.674 C 11.824 40.561 14.856 40.639 14.92 38.375 L 14.926 38.273 L 14.955 37.829 C 14.955 37.829 14.989 37.266 15.146 36.372 C 15.302 35.478 15.579 34.283 16.046 33.115 C 16.513 31.949 17.081 31.021 17.528 30.395 C 17.689 30.166 18.216 30.166 18.377 30.395 C 18.823 31.021 19.39 31.949 19.858 33.115 C 20.326 34.283 20.604 35.478 20.759 36.372 C 20.916 37.266 20.949 37.828 20.949 37.828 L 20.977 38.273 L 20.982 38.375 C 21.047 40.639 24.079 40.561 24.104 38.674 L 24.107 38.676 L 24.107 38.668 L 24.107 38.668 L 24.107 38.664 L 24.102 38.284 L 24.102 38.284 Z " fill="rgb(255,131,0)"/><path d=" M 34.545 21.535 C 34.489 21.525 31.622 20.797 27.941 21.055 C 24.256 21.318 21.779 22.576 21.708 22.612 C 21.302 22.819 21.014 23.176 20.88 23.577 L 20.88 23.577 C 20.88 23.579 20.88 23.581 20.878 23.583 C 20.878 23.585 20.876 23.588 20.875 23.589 L 20.877 23.591 C 20.752 23.993 20.775 24.454 20.984 24.862 C 21.023 24.934 22.293 27.423 25.122 29.827 C 27.95 32.222 30.692 33.335 30.745 33.36 L 31.1 33.483 L 31.103 33.485 L 31.104 33.485 L 31.112 33.488 L 31.109 33.483 C 32.893 34.044 33.903 31.152 31.794 30.391 L 31.7 30.354 L 31.291 30.19 C 31.291 30.19 30.771 29.982 29.979 29.555 C 29.186 29.129 28.147 28.493 27.194 27.682 C 26.24 26.873 25.545 26.041 25.092 25.417 C 24.926 25.193 25.089 24.686 25.354 24.602 C 26.082 24.364 27.131 24.107 28.373 24.018 C 29.615 23.93 30.825 24.032 31.716 24.159 C 32.603 24.285 33.146 24.425 33.146 24.425 L 33.572 24.534 L 33.671 24.561 C 35.818 25.198 36.684 22.259 34.914 21.653 L 34.918 21.651 L 34.911 21.648 L 34.908 21.648 L 34.907 21.647 L 34.545 21.535 L 34.545 21.535 Z " fill="rgb(255,131,0)"/><path d=" M 22.015 6.319 C 21.987 6.371 20.416 8.902 19.519 12.519 C 18.629 16.144 19.048 18.914 19.06 18.994 C 19.128 19.449 19.376 19.836 19.711 20.088 L 19.711 20.088 C 19.712 20.09 19.716 20.09 19.717 20.093 C 19.718 20.094 19.719 20.096 19.722 20.096 L 19.722 20.096 C 20.061 20.34 20.503 20.461 20.951 20.385 C 21.031 20.371 23.765 19.918 26.9 17.942 C 30.027 15.962 31.923 13.671 31.962 13.628 L 32.189 13.325 L 32.19 13.322 L 32.192 13.322 L 32.195 13.315 L 32.192 13.317 C 33.269 11.774 30.86 9.909 29.494 11.703 L 29.43 11.782 L 29.149 12.126 C 29.149 12.126 28.794 12.56 28.147 13.19 C 27.501 13.821 26.583 14.621 25.525 15.29 C 24.468 15.954 23.47 16.367 22.744 16.61 C 22.482 16.697 22.056 16.384 22.057 16.104 C 22.061 15.333 22.14 14.245 22.442 13.024 C 22.742 11.803 23.212 10.67 23.605 9.853 C 24 9.04 24.298 8.563 24.299 8.561 L 24.534 8.186 L 24.588 8.098 C 25.853 6.229 23.355 4.493 22.237 6.003 L 22.237 5.998 L 22.231 6.004 C 22.231 6.006 22.231 6.007 22.231 6.007 L 22.229 6.01 L 22.015 6.319 L 22.015 6.319 Z " fill="rgb(255,131,0)"/><path d=" M 3.827 13.664 C 3.866 13.707 5.762 16 8.889 17.98 C 12.025 19.955 14.76 20.408 14.838 20.423 C 15.286 20.497 15.729 20.376 16.068 20.134 L 16.069 20.134 C 16.071 20.133 16.072 20.13 16.073 20.128 C 16.075 20.127 16.077 20.127 16.079 20.126 L 16.079 20.124 C 16.414 19.874 16.663 19.487 16.73 19.031 C 16.741 18.95 17.16 16.18 16.271 12.556 C 15.374 8.939 13.803 6.409 13.775 6.356 L 13.56 6.045 L 13.56 6.045 L 13.559 6.043 L 13.555 6.037 L 13.554 6.041 C 12.436 4.528 9.938 6.269 11.202 8.135 L 11.257 8.223 L 11.491 8.598 C 11.491 8.6 11.791 9.077 12.184 9.891 C 12.577 10.707 13.049 11.84 13.349 13.062 C 13.649 14.282 13.73 15.37 13.732 16.143 C 13.734 16.424 13.308 16.736 13.045 16.647 C 12.32 16.405 11.321 15.994 10.266 15.326 C 9.209 14.661 8.289 13.858 7.642 13.227 C 6.998 12.6 6.641 12.163 6.641 12.163 L 6.36 11.818 L 6.295 11.74 C 4.928 9.948 2.521 11.81 3.597 13.353 L 3.595 13.351 L 3.597 13.359 L 3.6 13.359 L 3.602 13.363 L 3.827 13.664 L 3.827 13.664 Z " fill="rgb(255,131,0)"/><path d=" M 5.117 33.42 C 5.17 33.396 7.912 32.281 10.741 29.887 C 13.57 27.483 14.839 24.994 14.877 24.922 C 15.089 24.514 15.11 24.053 14.985 23.651 L 14.987 23.651 C 14.987 23.647 14.985 23.647 14.984 23.645 C 14.982 23.641 14.984 23.641 14.982 23.638 L 14.982 23.638 C 14.85 23.237 14.563 22.878 14.154 22.673 C 14.082 22.637 11.606 21.379 7.922 21.115 C 4.239 20.858 1.373 21.586 1.317 21.597 L 0.958 21.707 L 0.956 21.708 L 0.953 21.708 L 0.945 21.71 L 0.949 21.713 C -0.819 22.319 0.046 25.259 2.193 24.62 L 2.292 24.595 L 2.718 24.486 C 2.718 24.486 3.262 24.343 4.149 24.218 C 5.038 24.093 6.248 23.989 7.491 24.077 C 8.732 24.165 9.782 24.425 10.51 24.661 C 10.774 24.745 10.935 25.255 10.771 25.478 C 10.32 26.1 9.624 26.934 8.668 27.742 C 7.716 28.554 6.677 29.188 5.884 29.616 C 5.093 30.04 4.572 30.249 4.572 30.248 L 4.162 30.413 L 4.068 30.451 C 1.96 31.212 2.968 34.102 4.753 33.544 L 4.75 33.549 L 4.759 33.545 L 4.759 33.545 L 4.763 33.543 L 5.117 33.42 L 5.117 33.42 Z " fill="rgb(255,131,0)"/></g></g></svg>