<?xml version="1.0" encoding="UTF-8"?>
<svg width="180px" height="54px" viewBox="0 0 180 54" version="1.1" xmlns="http://www.w3.org/2000/svg" xmlns:xlink="http://www.w3.org/1999/xlink">
    <!-- Generator: Sketch 43.2 (39069) - http://www.bohemiancoding.com/sketch -->
    <title>Dash_UC_logo</title>
    <desc>Created with Sketch.</desc>
    <defs></defs>
    <g id="Page-1" stroke="none" stroke-width="1" fill="none" fill-rule="evenodd">
        <g id="Dash_UC_logo">
            <path d="M31.646,50.953 C31.637,50.88 31.376,46.999 29.581,42.497 C27.777,37.992 25.24,35.399 25.168,35.324 C24.751,34.897 24.197,34.682 23.651,34.676 L23.651,34.675 L23.637,34.675 L23.637,34.676 C23.092,34.682 22.535,34.897 22.12,35.324 C22.049,35.399 19.512,37.992 17.707,42.497 C15.912,46.999 15.65,50.88 15.642,50.953 L15.631,51.447 L15.631,51.464 L15.636,51.46 C15.668,53.915 19.615,54.018 19.697,51.071 L19.704,50.938 L19.742,50.36 C19.742,50.359 19.787,49.627 19.99,48.465 C20.195,47.301 20.555,45.746 21.163,44.226 C21.771,42.709 22.509,41.501 23.092,40.686 C23.3,40.388 23.986,40.388 24.197,40.686 C24.777,41.501 25.515,42.709 26.125,44.226 C26.733,45.746 27.095,47.301 27.297,48.465 C27.501,49.627 27.545,50.359 27.545,50.36 L27.581,50.938 L27.589,51.071 C27.674,54.018 31.62,53.915 31.652,51.46 L31.655,51.464 L31.655,51.447 L31.646,50.953" id="Fill-2" fill="#EC912D"></path>
            <path d="M45.239,29.155 C45.165,29.14 41.435,28.193 36.642,28.529 C31.847,28.871 28.623,30.51 28.53,30.556 C28.002,30.825 27.627,31.291 27.452,31.812 L27.452,31.81 C27.452,31.812 27.452,31.817 27.45,31.82 C27.45,31.823 27.448,31.825 27.447,31.827 L27.449,31.828 C27.286,32.353 27.316,32.952 27.589,33.484 C27.639,33.576 29.292,36.816 32.975,39.944 C36.654,43.06 40.224,44.511 40.293,44.544 L40.755,44.705 L40.76,44.706 L40.761,44.706 L40.77,44.71 L40.767,44.705 C43.088,45.435 44.402,41.669 41.657,40.679 L41.535,40.632 L41.002,40.418 C41.001,40.418 40.326,40.147 39.295,39.592 C38.261,39.038 36.91,38.208 35.67,37.154 C34.427,36.101 33.521,35.019 32.935,34.208 C32.718,33.916 32.93,33.255 33.275,33.145 C34.221,32.836 35.587,32.501 37.203,32.386 C38.819,32.27 40.395,32.404 41.554,32.567 C42.707,32.732 43.413,32.914 43.413,32.914 L43.968,33.058 L44.096,33.093 C46.892,33.921 48.017,30.097 45.714,29.306 L45.719,29.303 L45.711,29.301 L45.707,29.301 L45.706,29.299 L45.239,29.155" id="Fill-3" fill="#EC912D"></path>
            <path d="M28.93,9.352 C28.893,9.419 26.85,12.713 25.682,17.422 C24.524,22.139 25.069,25.743 25.083,25.849 C25.172,26.441 25.496,26.943 25.931,27.271 C25.933,27.274 25.938,27.274 25.94,27.277 C25.942,27.279 25.943,27.281 25.946,27.281 L25.947,27.281 C26.388,27.6 26.964,27.756 27.548,27.656 C27.651,27.64 31.211,27.05 35.29,24.478 C39.36,21.901 41.827,18.917 41.878,18.862 L42.172,18.469 L42.175,18.465 L42.177,18.465 L42.182,18.455 L42.177,18.456 C43.579,16.449 40.444,14.022 38.666,16.357 L38.582,16.46 L38.216,16.907 C38.216,16.907 37.753,17.472 36.911,18.292 C36.071,19.112 34.875,20.156 33.499,21.024 C32.125,21.891 30.826,22.428 29.88,22.744 C29.539,22.858 28.984,22.451 28.986,22.086 C28.991,21.081 29.093,19.665 29.487,18.077 C29.876,16.487 30.488,15.013 30.999,13.95 C31.513,12.891 31.902,12.27 31.903,12.269 L32.209,11.78 L32.28,11.667 C33.924,9.233 30.674,6.973 29.22,8.94 L29.22,8.934 L29.213,8.942 L29.213,8.946 L29.208,8.947 L28.93,9.352" id="Fill-4" fill="#EC912D"></path>
            <path d="M5.26,18.91 C5.31,18.967 7.778,21.951 11.847,24.527 C15.928,27.098 19.487,27.687 19.589,27.708 C20.173,27.805 20.748,27.647 21.191,27.331 L21.193,27.334 C21.195,27.331 21.196,27.328 21.198,27.326 C21.201,27.323 21.203,27.323 21.205,27.322 L21.205,27.319 C21.643,26.993 21.966,26.49 22.053,25.897 C22.067,25.791 22.612,22.188 21.455,17.469 C20.288,12.762 18.244,9.469 18.207,9.401 L17.927,8.997 L17.927,8.994 C17.927,8.994 17.925,8.993 17.925,8.991 L17.92,8.984 L17.919,8.989 C16.463,7.02 13.213,9.286 14.858,11.716 L14.93,11.83 L15.235,12.318 C15.235,12.32 15.624,12.94 16.136,13.999 C16.648,15.061 17.262,16.536 17.653,18.125 C18.042,19.715 18.148,21.129 18.151,22.137 C18.154,22.503 17.599,22.907 17.257,22.792 C16.313,22.477 15.013,21.941 13.64,21.072 C12.263,20.205 11.066,19.161 10.224,18.341 C9.386,17.525 8.922,16.955 8.922,16.955 L8.556,16.508 L8.471,16.407 C6.692,14.074 3.559,16.498 4.96,18.507 L4.956,18.505 L4.96,18.514 L4.964,18.514 L4.967,18.519 L5.26,18.91" id="Fill-5" fill="#EC912D"></path>
            <path d="M6.938,44.623 C7.006,44.591 10.576,43.141 14.258,40.024 C17.94,36.896 19.59,33.656 19.64,33.563 C19.916,33.032 19.944,32.43 19.781,31.909 L19.784,31.909 C19.784,31.903 19.781,31.903 19.779,31.899 C19.777,31.895 19.779,31.895 19.777,31.89 L19.776,31.89 C19.604,31.37 19.231,30.902 18.699,30.635 C18.605,30.589 15.382,28.951 10.588,28.607 C5.795,28.273 2.065,29.222 1.992,29.236 L1.525,29.379 L1.522,29.38 L1.519,29.38 L1.508,29.383 L1.515,29.388 C-0.787,30.175 0.339,34.003 3.133,33.171 L3.262,33.138 L3.816,32.995 C3.818,32.995 4.524,32.809 5.679,32.648 C6.836,32.485 8.41,32.35 10.029,32.464 C11.643,32.578 13.01,32.918 13.956,33.224 C14.301,33.335 14.51,33.997 14.297,34.288 C13.709,35.097 12.803,36.183 11.56,37.234 C10.32,38.29 8.968,39.117 7.936,39.673 C6.906,40.224 6.228,40.496 6.228,40.495 L5.695,40.71 L5.572,40.759 C2.83,41.751 4.142,45.512 6.464,44.786 L6.46,44.79 L6.473,44.786 L6.478,44.783 L6.938,44.623" id="Fill-6" fill="#EC912D"></path>
            <path d="M81.063,30.995 C81.063,39.917 75.964,47.632 67.109,47.632 C58.186,47.632 53.759,39.85 53.759,30.995 C53.759,23.012 57.65,14.223 67.109,14.223 C75.495,14.223 81.063,20.328 81.063,30.995 Z M81.063,23.347 L80.928,23.347 C79.318,17.108 74.421,12.882 67.109,12.882 C57.583,12.882 52.417,21.334 52.417,30.995 C52.417,41.393 57.985,48.974 67.109,48.974 C74.153,48.974 79.184,44.546 80.928,38.508 L81.063,38.508 L81.063,48.169 L82.404,48.169 L82.404,0.27 L81.063,0.27 L81.063,23.347 Z M113.397,34.282 C113.397,41.058 108.433,47.632 99.443,47.632 C91.93,47.632 89.38,43.607 89.38,39.649 C89.38,32.269 94.479,31.062 99.913,30.659 C105.481,30.257 111.451,30.525 113.263,27.909 L113.397,27.909 L113.397,34.282 Z M91.527,24.353 C91.997,17.913 96.156,14.223 103.334,14.223 C112.525,14.223 113.397,19.59 113.397,23.75 C113.397,28.982 109.372,28.781 99.913,29.318 C94.143,29.72 88.039,31.129 88.039,39.649 C88.039,45.754 92.735,48.974 99.577,48.974 C106.688,48.974 111.921,44.747 113.263,40.32 L113.397,40.32 L113.397,44.814 C113.397,48.37 116.483,48.37 119.099,48.169 L119.099,46.827 C117.221,47.028 114.739,47.296 114.739,44.68 L114.739,22.743 C114.537,15.23 109.439,12.882 103.334,12.882 C94.814,12.882 90.521,17.846 90.185,24.353 L91.527,24.353 Z M146.335,23.884 C146.335,16.236 141.505,12.882 133.857,12.882 C125.27,12.882 122.184,17.712 122.184,21.536 C122.184,25.225 123.526,27.439 126.343,28.647 C128.289,29.519 130.771,30.19 134.058,30.995 C139.962,32.471 145.932,33.41 145.932,39.515 C145.932,45.418 139.76,47.632 134.796,47.632 C126.813,47.632 122.184,44.009 122.184,36.362 L120.842,36.362 C120.842,45.016 125.74,48.974 134.796,48.974 C140.767,48.974 147.274,46.29 147.274,39.38 C147.274,32.806 141.505,31.464 136.205,30.123 C132.515,29.116 129.765,28.513 127.35,27.573 C125.002,26.634 123.526,24.957 123.526,21.536 C123.526,20.328 124.197,14.223 133.857,14.223 C140.431,14.223 144.993,16.974 144.993,23.884 L146.335,23.884 Z M153.58,48.169 L154.922,48.169 L154.922,28.647 C154.922,20.999 159.215,14.223 167.467,14.223 C173.303,14.223 178.401,17.511 178.401,25.494 L178.401,48.169 L179.743,48.169 L179.743,25.293 C179.743,17.309 174.645,12.882 167.467,12.882 C160.691,12.882 156.33,16.907 155.056,22.207 L154.922,22.207 L154.922,0.27 L153.58,0.27 L153.58,48.169 L153.58,48.169 Z" id="Fill-7" fill="#686968"></path>
        </g>
    </g>
</svg>