<?xml version="1.0" encoding="UTF-8"?>
<svg width="227px" height="41px" viewBox="0 0 227 41" version="1.1" xmlns="http://www.w3.org/2000/svg" xmlns:xlink="http://www.w3.org/1999/xlink">
    <!-- Generator: Sketch 43.2 (39069) - http://www.bohemiancoding.com/sketch -->
    <title>dmptool_logo</title>
    <desc>Created with Sketch.</desc>
    <defs></defs>
    <g id="Page-1" stroke="none" stroke-width="1" fill="none" fill-rule="evenodd">
        <g id="dmptool_logo" fill-rule="nonzero">
            <path d="M162.1,8.9 L171.7,8.9 L171.7,34.2 L174.3,34.2 L174.3,8.9 L183.9,8.9 L183.9,6.6 L162.1,6.6 L162.1,8.9 L162.1,8.9 Z M190.1,13.7 C184,13.7 180.7,18.5 180.7,24.2 C180.7,29.9 184,34.7 190.1,34.7 C196.2,34.7 199.5,29.9 199.5,24.2 C199.5,18.5 196.2,13.7 190.1,13.7 L190.1,13.7 Z M190.1,15.7 C194.8,15.7 197.1,19.9 197.1,24.2 C197.1,28.5 194.8,32.7 190.1,32.7 C185.4,32.7 183.1,28.5 183.1,24.2 C183.1,19.9 185.4,15.7 190.1,15.7 L190.1,15.7 Z M211.5,13.7 C205.4,13.7 202.1,18.5 202.1,24.2 C202.1,29.9 205.4,34.7 211.5,34.7 C217.6,34.7 220.9,29.9 220.9,24.2 C220.9,18.5 217.6,13.7 211.5,13.7 L211.5,13.7 Z M211.5,15.7 C216.2,15.7 218.5,19.9 218.5,24.2 C218.5,28.5 216.2,32.7 211.5,32.7 C206.8,32.7 204.5,28.5 204.5,24.2 C204.5,19.9 206.8,15.7 211.5,15.7 L211.5,15.7 Z M224.6,34.1 L227,34.1 L227,6.6 L224.6,6.6 L224.6,34.1 L224.6,34.1 Z" id="Shape" fill="#273572"></path>
            <path d="M75.8,34.4 L87.7,34.4 C96.1,34.4 100.2,28.5 100.2,20.5 C100.2,11.4 94.8,6.9 87.7,6.9 L75.8,6.9 L75.8,34.4 Z M81.8,12 L86.1,12 C92.1,12 94,15.6 94,21.1 C94,27.2 90.7,29.3 87.1,29.3 L81.8,29.3 L81.8,12 Z M104.3,34.4 L110,34.4 L110,15.1 L116.7,34.4 L121.4,34.4 L128.1,14.9 L128.2,14.9 L128.2,34.4 L133.9,34.4 L133.9,6.9 L125.4,6.9 L119.3,25.8 L119.2,25.8 L112.8,6.9 L104.3,6.9 L104.3,34.4 L104.3,34.4 Z M139.2,34.4 L145.2,34.4 L145.2,24.5 L151.6,24.5 C158.5,24.5 161.1,20.1 161.1,15.7 C161.1,11.3 158.4,6.9 151.6,6.9 L139.2,6.9 L139.2,34.4 Z M145.2,11.6 L150,11.6 C152.8,11.6 155.3,12.2 155.3,15.7 C155.3,19.2 152.8,19.8 150,19.8 L145.3,19.8 L145.3,11.6 L145.2,11.6 L145.2,11.6 Z" id="Shape" fill="#4D4C4E"></path>
            <path d="M1.2,23 L2.3,22.6 L37.3,37 L62.5,25.5 L63.4,25.8 C64,26 64.5,26.5 64.6,27.1 C64.6,27.7 64.2,28.3 63.6,28.5 L38.6,40 C37.8,40.3 36.9,40.3 36.1,40 L1.1,25.7 C0.5,25.5 0,25 0,24.4 C0.1,23.7 0.6,23.2 1.2,23 Z" id="Shape" fill="#273572"></path>
            <path d="M1.2,16.8 L2.5,16.3 C5.4,17.6 37.3,30.2 37.3,30.2 L62.2,19.2 L63.4,19.6 C64,19.8 64.5,20.3 64.6,20.9 C64.6,21.5 64.2,22.1 63.6,22.3 L38.6,33.4 C38.2,33.6 37.8,33.7 37.4,33.6 C37,33.6 36.6,33.5 36.3,33.4 L1.1,19.5 C0.5,19.3 0,18.8 0,18.1 C0.1,17.5 0.6,17 1.2,16.8 Z" id="Shape" fill="#3576BC"></path>
            <path d="M63.7,15.8 C63.6,15.8 61.5,16.9 54.9,19.8 C53.5,20.4 51.9,20.8 50.4,20.8 L23.2,20.8 C21.2,20.8 19.3,20.5 17.4,19.8 C8.5,16.4 1.3,13.1 1,13 C0.4,12.8 0,12.2 0,11.6 C0.1,11 0.6,10.5 1.2,10.3 L26.7,1.1 C27.4,0.9 28.1,0.9 28.8,1.1 L63.4,13.1 C64,13.3 64.5,13.7 64.6,14.4 C64.7,15.1 64.3,15.6 63.7,15.8 Z M27.8,4.3 L6.8,11.8 C9.7,13.1 14.4,15 19.6,17 C20.8,17.4 22,17.6 23.2,17.6 C29.5,17.6 35.7,12.9 35.7,12.8 C36.2,12.4 36.8,12.3 37.4,12.3 C38,12.3 38.6,12.5 39.1,12.8 C40.8,14.1 46.1,17.5 50.2,17.5 C51,17.5 51.7,17.4 52.4,17.1 C54.8,16.1 56.6,15.3 57.9,14.7 L27.8,4.3 Z" id="Shape" fill="#70A9DB"></path>
        </g>
    </g>
</svg>