<?xml version="1.0" standalone="no"?><!-- Generator: Gravit.io --><svg xmlns="http://www.w3.org/2000/svg" xmlns:xlink="http://www.w3.org/1999/xlink" style="isolation:isolate" viewBox="0 0 68 42" width="68" height="42"><defs><clipPath id="_clipPath_y0Ny8pv5eE4ZxDjcjAp2mreG2GwWMKWm"><rect width="68" height="42"/></clipPath></defs><g clip-path="url(#_clipPath_y0Ny8pv5eE4ZxDjcjAp2mreG2GwWMKWm)"><path d=" M 2.2 23 L 3.3 22.6 L 38.3 37 L 63.5 25.5 L 64.4 25.8 C 65 26 65.5 26.5 65.6 27.1 C 65.6 27.7 65.2 28.3 64.6 28.5 L 39.6 40 C 38.8 40.3 37.9 40.3 37.1 40 L 2.1 25.7 C 1.5 25.5 1 25 1 24.4 C 1.1 23.7 1.6 23.2 2.2 23 Z " fill="rgb(39,53,114)"/><path d=" M 2.2 16.8 L 3.5 16.3 C 6.4 17.6 38.3 30.2 38.3 30.2 L 63.2 19.2 L 64.4 19.6 C 65 19.8 65.5 20.3 65.6 20.9 C 65.6 21.5 65.2 22.1 64.6 22.3 L 39.6 33.4 C 39.2 33.6 38.8 33.7 38.4 33.6 C 38 33.6 37.6 33.5 37.3 33.4 L 2.1 19.5 C 1.5 19.3 1 18.8 1 18.1 C 1.1 17.5 1.6 17 2.2 16.8 Z " fill="rgb(53,118,188)"/><path d=" M 64.7 15.8 C 64.6 15.8 62.5 16.9 55.9 19.8 C 54.5 20.4 52.9 20.8 51.4 20.8 L 24.2 20.8 C 22.2 20.8 20.3 20.5 18.4 19.8 C 9.5 16.4 2.3 13.1 2 13 C 1.4 12.8 1 12.2 1 11.6 C 1.1 11 1.6 10.5 2.2 10.3 L 27.7 1.1 C 28.4 0.9 29.1 0.9 29.8 1.1 L 64.4 13.1 C 65 13.3 65.5 13.7 65.6 14.4 C 65.7 15.1 65.3 15.6 64.7 15.8 Z  M 28.8 4.3 L 7.8 11.8 C 10.7 13.1 15.4 15 20.6 17 C 21.8 17.4 23 17.6 24.2 17.6 C 30.5 17.6 36.7 12.9 36.7 12.8 C 37.2 12.4 37.8 12.3 38.4 12.3 C 39 12.3 39.6 12.5 40.1 12.8 C 41.8 14.1 47.1 17.5 51.2 17.5 C 52 17.5 52.7 17.4 53.4 17.1 C 55.8 16.1 57.6 15.3 58.9 14.7 L 28.8 4.3 L 28.8 4.3 Z " fill="rgb(112,169,219)"/></g></svg>