<?xml version="1.0" standalone="no"?><svg xmlns="http://www.w3.org/2000/svg" xmlns:xlink="http://www.w3.org/1999/xlink" style="isolation:isolate" viewBox="0 0 45.8 45.8" width="45.8" height="45.8"><defs><clipPath id="_clipPath_T4qEjx8KSW90ijffeXYHNgyHf8SxGTp1"><rect width="45.8" height="45.8"/></clipPath></defs><g clip-path="url(#_clipPath_T4qEjx8KSW90ijffeXYHNgyHf8SxGTp1)"><path d=" M 17.393 4.327 C 18.054 4.327 18.665 3.974 18.996 3.401 C 19.327 2.829 19.327 2.123 18.996 1.55 C 18.665 0.977 18.054 0.624 17.393 0.624 C 16.37 0.624 15.541 1.453 15.541 2.476 C 15.541 3.498 16.37 4.327 17.393 4.327 M 7.684 10.594 C 9.033 10.569 10.107 9.456 10.083 8.107 C 10.059 6.758 8.947 5.684 7.598 5.707 C 6.249 5.731 5.174 6.844 5.198 8.193 C 5.221 9.542 6.334 10.617 7.684 10.594 M 2.405 19.205 C 3.428 19.204 4.256 18.375 4.255 17.352 C 4.255 16.33 3.425 15.502 2.403 15.502 C 1.381 15.503 0.552 16.332 0.553 17.355 C 0.554 18.377 1.383 19.206 2.405 19.205 M 2.402 26.146 C 1.053 26.17 -0.021 27.282 0.002 28.631 C 0.026 29.98 1.139 31.055 2.488 31.031 C 3.818 30.982 4.865 29.878 4.842 28.546 C 4.818 27.215 3.733 26.148 2.402 26.146 M 7.761 35.875 C 7.1 35.875 6.488 36.227 6.157 36.8 C 5.827 37.373 5.827 38.079 6.157 38.652 C 6.488 39.225 7.1 39.578 7.761 39.578 C 8.784 39.578 9.613 38.749 9.613 37.726 C 9.613 36.704 8.784 35.875 7.761 35.875 M 17.512 40.898 C 16.636 40.909 15.833 41.388 15.407 42.154 C 14.981 42.919 14.997 43.855 15.45 44.605 C 15.902 45.355 16.722 45.806 17.598 45.786 C 18.943 45.756 20.011 44.644 19.988 43.299 C 19.964 41.954 18.857 40.881 17.512 40.898 M 28.106 41.426 C 27.432 41.406 26.8 41.754 26.457 42.335 C 26.114 42.916 26.114 43.637 26.457 44.218 C 26.8 44.799 27.432 45.147 28.106 45.127 C 29.107 45.097 29.903 44.277 29.903 43.276 C 29.903 42.275 29.107 41.456 28.106 41.426 Z  M 37.799 35.176 C 36.914 35.175 36.098 35.651 35.664 36.422 C 35.23 37.193 35.246 38.138 35.707 38.894 C 36.167 39.649 37 40.097 37.884 40.065 C 38.532 40.053 39.149 39.785 39.599 39.318 C 40.049 38.852 40.295 38.225 40.283 37.577 C 40.272 36.93 40.004 36.313 39.538 35.862 C 39.073 35.412 38.447 35.165 37.799 35.176 M 43.082 26.596 C 42.421 26.596 41.809 26.949 41.479 27.522 C 41.148 28.095 41.148 28.801 41.479 29.374 C 41.809 29.947 42.421 30.299 43.082 30.299 C 44.105 30.299 44.934 29.47 44.934 28.448 C 44.934 27.425 44.105 26.596 43.082 26.596 M 43.086 19.621 C 43.959 19.606 44.757 19.126 45.18 18.363 C 45.604 17.6 45.587 16.668 45.138 15.92 C 44.688 15.172 43.874 14.721 43.001 14.736 C 42.129 14.751 41.331 15.23 40.907 15.994 C 40.484 16.757 40.5 17.688 40.95 18.436 C 41.399 19.184 42.214 19.636 43.086 19.621 M 37.731 9.891 C 38.732 9.862 39.529 9.042 39.529 8.04 C 39.529 7.039 38.732 6.219 37.731 6.189 C 36.709 6.189 35.88 7.018 35.88 8.04 C 35.88 9.063 36.709 9.891 37.731 9.891 Z  M 27.989 4.886 C 28.637 4.875 29.254 4.607 29.704 4.141 C 30.154 3.675 30.401 3.049 30.389 2.401 C 30.372 1.412 29.761 0.531 28.841 0.169 C 27.921 -0.194 26.874 0.034 26.187 0.745 C 25.5 1.456 25.31 2.511 25.704 3.418 C 26.099 4.324 27 4.904 27.989 4.886 Z  M 28.113 8.304 C 28.095 9.413 28.676 10.444 29.633 11.004 C 30.589 11.563 31.773 11.563 32.73 11.004 C 33.687 10.444 34.268 9.413 34.25 8.304 C 34.223 6.629 32.857 5.286 31.181 5.286 C 29.506 5.286 28.14 6.629 28.113 8.304 Z  M 22.75 8.669 C 24.106 8.669 25.205 7.57 25.205 6.214 C 25.205 4.858 24.106 3.759 22.75 3.759 C 21.394 3.759 20.295 4.858 20.295 6.214 C 20.295 7.57 21.394 8.669 22.75 8.669 M 14.525 11.338 C 15.633 11.356 16.665 10.775 17.225 9.819 C 17.784 8.862 17.784 7.678 17.225 6.721 C 16.665 5.764 15.633 5.183 14.525 5.201 C 12.85 5.229 11.506 6.594 11.506 8.27 C 11.506 9.945 12.85 11.311 14.525 11.338 Z  M 5.972 14.385 C 5.972 15.741 7.071 16.84 8.427 16.84 C 9.782 16.84 10.881 15.741 10.881 14.385 C 10.881 13.029 9.782 11.93 8.427 11.93 C 7.071 11.93 5.972 13.029 5.972 14.385 Z  M 6.053 19.828 C 4.944 19.81 3.912 20.391 3.353 21.348 C 2.794 22.304 2.794 23.488 3.353 24.445 C 3.912 25.402 4.944 25.983 6.053 25.965 C 7.747 25.965 9.121 24.591 9.121 22.896 C 9.121 21.201 7.747 19.827 6.053 19.827 M 8.456 28.576 C 7.1 28.577 6.001 29.675 6 31.031 C 6.035 32.362 7.124 33.423 8.455 33.423 C 9.787 33.423 10.876 32.362 10.91 31.031 C 10.91 30.38 10.651 29.756 10.191 29.295 C 9.731 28.835 9.106 28.576 8.455 28.576 M 17.574 37.139 C 17.575 35.445 16.202 34.071 14.508 34.071 C 12.813 34.071 11.44 35.444 11.439 37.138 C 11.439 38.832 12.812 40.206 14.506 40.206 C 16.2 40.207 17.574 38.834 17.574 37.139 M 22.727 37.058 C 21.835 37.035 21.001 37.498 20.549 38.266 C 20.096 39.035 20.096 39.989 20.549 40.757 C 21.001 41.526 21.835 41.989 22.727 41.966 C 24.058 41.932 25.119 40.843 25.119 39.512 C 25.119 38.181 24.058 37.092 22.727 37.058 Z  M 31.181 34.071 C 30.085 34.071 29.072 34.655 28.524 35.604 C 27.976 36.553 27.976 37.722 28.523 38.672 C 29.071 39.621 30.084 40.206 31.179 40.206 C 32.873 40.206 34.247 38.833 34.247 37.139 C 34.248 35.445 32.875 34.072 31.181 34.071 M 37.26 33.514 C 37.911 33.514 38.536 33.255 38.997 32.795 C 39.457 32.335 39.716 31.71 39.716 31.059 C 39.692 29.72 38.6 28.648 37.261 28.648 C 35.922 28.648 34.83 29.72 34.806 31.059 C 34.806 31.71 35.064 32.334 35.525 32.795 C 35.985 33.255 36.61 33.514 37.261 33.514 M 36.305 22.867 C 36.305 23.964 36.89 24.977 37.84 25.525 C 38.79 26.073 39.96 26.072 40.909 25.524 C 41.858 24.976 42.443 23.962 42.443 22.866 C 42.442 21.171 41.068 19.797 39.373 19.798 C 37.678 19.798 36.305 21.173 36.305 22.867 M 37.26 16.839 C 38.616 16.839 39.716 15.74 39.716 14.384 C 39.717 13.028 38.618 11.928 37.262 11.928 C 35.905 11.927 34.806 13.026 34.805 14.383 C 34.805 15.739 35.904 16.839 37.26 16.839 Z " fill="rgb(53,148,166)"/></g></svg>