<?xml version="1.0" standalone="no"?><svg xmlns="http://www.w3.org/2000/svg" xmlns:xlink="http://www.w3.org/1999/xlink" style="isolation:isolate" viewBox="0 0 200 45.8" width="200" height="45.8"><defs><clipPath id="_clipPath_dneM4GFrNjL8bcVsKDL3vVGBH7hQS0QU"><rect width="200" height="45.8"/></clipPath></defs><g clip-path="url(#_clipPath_dneM4GFrNjL8bcVsKDL3vVGBH7hQS0QU)"><path d=" M 17.393 4.327 C 18.054 4.327 18.665 3.974 18.996 3.401 C 19.327 2.829 19.327 2.123 18.996 1.55 C 18.665 0.977 18.054 0.624 17.393 0.624 C 16.37 0.624 15.541 1.453 15.541 2.476 C 15.541 3.498 16.37 4.327 17.393 4.327 M 7.684 10.594 C 9.033 10.569 10.107 9.456 10.083 8.107 C 10.059 6.758 8.947 5.684 7.598 5.707 C 6.249 5.731 5.174 6.844 5.198 8.193 C 5.221 9.542 6.334 10.617 7.684 10.594 M 2.405 19.205 C 3.428 19.204 4.256 18.375 4.255 17.352 C 4.255 16.33 3.425 15.502 2.403 15.502 C 1.381 15.503 0.552 16.332 0.553 17.355 C 0.554 18.377 1.383 19.206 2.405 19.205 M 2.402 26.146 C 1.053 26.17 -0.021 27.282 0.002 28.631 C 0.026 29.98 1.139 31.055 2.488 31.031 C 3.818 30.982 4.865 29.878 4.842 28.546 C 4.818 27.215 3.733 26.148 2.402 26.146 M 7.761 35.875 C 7.1 35.875 6.488 36.227 6.157 36.8 C 5.827 37.373 5.827 38.079 6.157 38.652 C 6.488 39.225 7.1 39.578 7.761 39.578 C 8.784 39.578 9.613 38.749 9.613 37.726 C 9.613 36.704 8.784 35.875 7.761 35.875 M 17.512 40.898 C 16.636 40.909 15.833 41.388 15.407 42.154 C 14.981 42.919 14.997 43.855 15.45 44.605 C 15.902 45.355 16.722 45.806 17.598 45.786 C 18.943 45.756 20.011 44.644 19.988 43.299 C 19.964 41.954 18.857 40.881 17.512 40.898 M 28.106 41.426 C 27.432 41.406 26.8 41.754 26.457 42.335 C 26.114 42.916 26.114 43.637 26.457 44.218 C 26.8 44.799 27.432 45.147 28.106 45.127 C 29.107 45.097 29.903 44.277 29.903 43.276 C 29.903 42.275 29.107 41.456 28.106 41.426 Z  M 37.799 35.176 C 36.914 35.175 36.098 35.651 35.664 36.422 C 35.23 37.193 35.246 38.138 35.707 38.894 C 36.167 39.649 37 40.097 37.884 40.065 C 38.532 40.053 39.149 39.785 39.599 39.318 C 40.049 38.852 40.295 38.225 40.283 37.577 C 40.272 36.93 40.004 36.313 39.538 35.862 C 39.073 35.412 38.447 35.165 37.799 35.176 M 43.082 26.596 C 42.421 26.596 41.809 26.949 41.479 27.522 C 41.148 28.095 41.148 28.801 41.479 29.374 C 41.809 29.947 42.421 30.299 43.082 30.299 C 44.105 30.299 44.934 29.47 44.934 28.448 C 44.934 27.425 44.105 26.596 43.082 26.596 M 43.086 19.621 C 43.959 19.606 44.757 19.126 45.18 18.363 C 45.604 17.6 45.587 16.668 45.138 15.92 C 44.688 15.172 43.874 14.721 43.001 14.736 C 42.129 14.751 41.331 15.23 40.907 15.994 C 40.484 16.757 40.5 17.688 40.95 18.436 C 41.399 19.184 42.214 19.636 43.086 19.621 M 37.731 9.891 C 38.732 9.862 39.529 9.042 39.529 8.04 C 39.529 7.039 38.732 6.219 37.731 6.189 C 36.709 6.189 35.88 7.018 35.88 8.04 C 35.88 9.063 36.709 9.891 37.731 9.891 Z  M 27.989 4.886 C 28.637 4.875 29.254 4.607 29.704 4.141 C 30.154 3.675 30.401 3.049 30.389 2.401 C 30.372 1.412 29.761 0.531 28.841 0.169 C 27.921 -0.194 26.874 0.034 26.187 0.745 C 25.5 1.456 25.31 2.511 25.704 3.418 C 26.099 4.324 27 4.904 27.989 4.886 Z  M 28.113 8.304 C 28.095 9.413 28.676 10.444 29.633 11.004 C 30.589 11.563 31.773 11.563 32.73 11.004 C 33.687 10.444 34.268 9.413 34.25 8.304 C 34.223 6.629 32.857 5.286 31.181 5.286 C 29.506 5.286 28.14 6.629 28.113 8.304 Z  M 22.75 8.669 C 24.106 8.669 25.205 7.57 25.205 6.214 C 25.205 4.858 24.106 3.759 22.75 3.759 C 21.394 3.759 20.295 4.858 20.295 6.214 C 20.295 7.57 21.394 8.669 22.75 8.669 M 14.525 11.338 C 15.633 11.356 16.665 10.775 17.225 9.819 C 17.784 8.862 17.784 7.678 17.225 6.721 C 16.665 5.764 15.633 5.183 14.525 5.201 C 12.85 5.229 11.506 6.594 11.506 8.27 C 11.506 9.945 12.85 11.311 14.525 11.338 Z  M 5.972 14.385 C 5.972 15.741 7.071 16.84 8.427 16.84 C 9.782 16.84 10.881 15.741 10.881 14.385 C 10.881 13.029 9.782 11.93 8.427 11.93 C 7.071 11.93 5.972 13.029 5.972 14.385 Z  M 6.053 19.828 C 4.944 19.81 3.912 20.391 3.353 21.348 C 2.794 22.304 2.794 23.488 3.353 24.445 C 3.912 25.402 4.944 25.983 6.053 25.965 C 7.747 25.965 9.121 24.591 9.121 22.896 C 9.121 21.201 7.747 19.827 6.053 19.827 M 8.456 28.576 C 7.1 28.577 6.001 29.675 6 31.031 C 6.035 32.362 7.124 33.423 8.455 33.423 C 9.787 33.423 10.876 32.362 10.91 31.031 C 10.91 30.38 10.651 29.756 10.191 29.295 C 9.731 28.835 9.106 28.576 8.455 28.576 M 17.574 37.139 C 17.575 35.445 16.202 34.071 14.508 34.071 C 12.813 34.071 11.44 35.444 11.439 37.138 C 11.439 38.832 12.812 40.206 14.506 40.206 C 16.2 40.207 17.574 38.834 17.574 37.139 M 22.727 37.058 C 21.835 37.035 21.001 37.498 20.549 38.266 C 20.096 39.035 20.096 39.989 20.549 40.757 C 21.001 41.526 21.835 41.989 22.727 41.966 C 24.058 41.932 25.119 40.843 25.119 39.512 C 25.119 38.181 24.058 37.092 22.727 37.058 Z  M 31.181 34.071 C 30.085 34.071 29.072 34.655 28.524 35.604 C 27.976 36.553 27.976 37.722 28.523 38.672 C 29.071 39.621 30.084 40.206 31.179 40.206 C 32.873 40.206 34.247 38.833 34.247 37.139 C 34.248 35.445 32.875 34.072 31.181 34.071 M 37.26 33.514 C 37.911 33.514 38.536 33.255 38.997 32.795 C 39.457 32.335 39.716 31.71 39.716 31.059 C 39.692 29.72 38.6 28.648 37.261 28.648 C 35.922 28.648 34.83 29.72 34.806 31.059 C 34.806 31.71 35.064 32.334 35.525 32.795 C 35.985 33.255 36.61 33.514 37.261 33.514 M 36.305 22.867 C 36.305 23.964 36.89 24.977 37.84 25.525 C 38.79 26.073 39.96 26.072 40.909 25.524 C 41.858 24.976 42.443 23.962 42.443 22.866 C 42.442 21.171 41.068 19.797 39.373 19.798 C 37.678 19.798 36.305 21.173 36.305 22.867 M 37.26 16.839 C 38.616 16.839 39.716 15.74 39.716 14.384 C 39.717 13.028 38.618 11.928 37.262 11.928 C 35.905 11.927 34.806 13.026 34.805 14.383 C 34.805 15.739 35.904 16.839 37.26 16.839 Z " fill="rgb(53,148,166)"/><path d=" M 69.263 13.589 C 69.247 13.142 69.18 12.698 69.06 12.267 C 68.95 11.868 68.767 11.493 68.521 11.161 C 68.269 10.83 67.94 10.566 67.563 10.392 C 67.167 10.204 66.69 10.108 66.133 10.108 C 65.089 10.108 64.281 10.432 63.705 11.08 C 63.129 11.727 62.751 12.564 62.572 13.589 L 69.263 13.589 L 69.263 13.589 Z  M 62.463 15.155 C 62.481 15.838 62.566 16.49 62.72 17.111 C 62.872 17.731 63.111 18.28 63.434 18.756 C 63.754 19.23 64.185 19.619 64.688 19.89 C 65.202 20.168 65.817 20.307 66.536 20.307 C 66.986 20.307 67.4 20.263 67.778 20.173 C 68.155 20.083 68.493 19.98 68.79 19.863 C 69.086 19.746 69.347 19.62 69.573 19.485 C 69.797 19.35 69.98 19.237 70.125 19.148 L 70.935 20.686 C 70.727 20.822 70.516 20.952 70.301 21.077 C 70.04 21.23 69.725 21.374 69.356 21.509 C 68.987 21.643 68.565 21.76 68.088 21.859 C 67.56 21.963 67.022 22.013 66.483 22.008 C 65.457 22.008 64.563 21.828 63.799 21.468 C 63.058 21.127 62.403 20.625 61.882 19.998 C 61.371 19.378 60.988 18.649 60.736 17.812 C 60.479 16.94 60.352 16.036 60.359 15.127 C 60.359 14.175 60.503 13.289 60.79 12.47 C 61.078 11.652 61.478 10.942 61.99 10.339 C 62.495 9.743 63.121 9.26 63.825 8.923 C 64.536 8.582 65.323 8.41 66.186 8.41 C 67.05 8.41 67.818 8.572 68.494 8.896 C 69.153 9.208 69.724 9.681 70.152 10.272 C 70.584 10.865 70.894 11.576 71.083 12.403 C 71.272 13.23 71.321 14.148 71.231 15.155 L 62.463 15.155 M 84.64 17.186 C 84.647 17.856 84.502 18.518 84.215 19.124 C 83.933 19.715 83.528 20.239 83.027 20.661 C 82.52 21.091 81.902 21.423 81.174 21.656 C 80.445 21.89 79.649 22.007 78.786 22.007 C 78.159 22.013 77.534 21.944 76.924 21.802 C 76.42 21.682 75.928 21.517 75.454 21.308 C 75.076 21.142 74.715 20.941 74.374 20.706 C 74.13 20.539 73.9 20.351 73.687 20.145 L 74.766 18.634 L 75.251 19.039 C 75.467 19.22 75.741 19.394 76.075 19.565 C 76.408 19.737 76.807 19.889 77.275 20.024 C 77.743 20.158 78.274 20.226 78.866 20.226 C 79.424 20.226 79.927 20.141 80.378 19.97 C 80.801 19.815 81.193 19.587 81.537 19.297 C 81.852 19.031 82.105 18.7 82.279 18.327 C 82.451 17.96 82.536 17.577 82.536 17.182 C 82.536 16.643 82.419 16.171 82.186 15.767 C 81.944 15.355 81.628 14.99 81.254 14.691 C 80.843 14.361 80.4 14.072 79.932 13.829 C 79.429 13.564 78.921 13.308 78.408 13.061 C 77.877 12.797 77.354 12.514 76.842 12.213 C 76.354 11.928 75.905 11.579 75.508 11.176 C 75.121 10.78 74.805 10.32 74.577 9.816 C 74.343 9.303 74.226 8.688 74.226 7.97 C 74.226 7.234 74.371 6.583 74.663 6.017 C 74.949 5.459 75.349 4.968 75.838 4.576 C 76.337 4.176 76.907 3.875 77.518 3.687 C 78.155 3.488 78.819 3.388 79.487 3.391 C 80.152 3.391 80.746 3.445 81.267 3.555 C 81.789 3.666 82.244 3.793 82.629 3.939 C 83.017 4.086 83.341 4.245 83.601 4.418 C 83.862 4.592 84.065 4.733 84.208 4.842 L 83.183 6.412 C 82.877 6.16 82.418 5.89 81.807 5.602 C 81.196 5.315 80.414 5.171 79.46 5.171 C 78.561 5.171 77.814 5.418 77.221 5.912 C 76.627 6.407 76.331 7.066 76.331 7.893 C 76.331 8.341 76.416 8.731 76.585 9.064 C 76.754 9.396 76.987 9.696 77.282 9.966 C 77.577 10.236 77.917 10.479 78.301 10.693 C 78.685 10.909 79.101 11.125 79.547 11.341 C 80.137 11.628 80.736 11.928 81.343 12.243 C 81.936 12.546 82.485 12.927 82.978 13.374 C 83.467 13.823 83.871 14.357 84.171 14.949 C 84.484 15.56 84.64 16.305 84.64 17.185 M 96.997 20.712 C 96.87 20.82 96.695 20.946 96.471 21.09 C 96.2 21.257 95.916 21.402 95.621 21.522 C 95.242 21.676 94.849 21.793 94.447 21.872 C 93.945 21.967 93.434 22.012 92.923 22.006 C 91.969 22.006 91.124 21.818 90.387 21.439 C 89.67 21.079 89.04 20.569 88.539 19.943 C 88.044 19.322 87.67 18.598 87.419 17.771 C 87.167 16.94 87.039 16.076 87.041 15.208 C 87.041 14.092 87.203 13.112 87.528 12.267 C 87.85 11.422 88.283 10.715 88.822 10.149 C 89.353 9.589 89.997 9.147 90.711 8.854 C 91.438 8.556 92.218 8.404 93.004 8.409 C 94.065 8.409 94.914 8.562 95.553 8.868 C 96.192 9.174 96.664 9.452 96.97 9.704 L 96.025 11.188 C 95.642 10.911 95.236 10.667 94.812 10.459 C 94.344 10.226 93.733 10.108 92.977 10.108 C 92.311 10.108 91.736 10.239 91.25 10.5 C 90.765 10.761 90.369 11.116 90.063 11.566 C 89.757 12.015 89.528 12.55 89.376 13.171 C 89.219 13.82 89.142 14.486 89.146 15.153 C 89.146 15.838 89.222 16.489 89.375 17.111 C 89.512 17.695 89.75 18.252 90.077 18.756 C 90.384 19.226 90.801 19.615 91.291 19.889 C 91.785 20.167 92.365 20.307 93.031 20.307 C 93.444 20.307 93.822 20.266 94.164 20.185 C 94.478 20.113 94.785 20.014 95.082 19.889 C 95.351 19.772 95.58 19.65 95.769 19.525 C 95.959 19.399 96.097 19.3 96.188 19.228 L 96.997 20.712 M 107.976 21.683 L 107.976 12.834 C 107.976 12.024 107.81 11.382 107.478 10.905 C 107.144 10.429 106.547 10.19 105.683 10.19 C 105.179 10.19 104.717 10.298 104.295 10.514 C 103.871 10.729 103.493 10.972 103.162 11.242 C 102.828 11.511 102.559 11.777 102.352 12.038 C 102.144 12.299 102.006 12.474 101.933 12.564 L 101.933 21.682 L 99.964 21.682 L 99.964 2.258 L 101.933 2.258 L 101.933 10.594 C 102.078 10.415 102.27 10.199 102.514 9.947 C 102.756 9.695 103.052 9.458 103.403 9.232 C 103.784 8.993 104.192 8.799 104.617 8.653 C 105.108 8.485 105.624 8.402 106.142 8.409 C 106.826 8.409 107.405 8.517 107.883 8.733 C 108.333 8.929 108.734 9.225 109.055 9.596 C 109.363 9.956 109.585 10.383 109.731 10.878 C 109.873 11.372 109.946 11.898 109.946 12.455 L 109.946 21.682 L 107.976 21.682 M 123.113 15.235 C 123.113 14.533 123.026 13.873 122.856 13.252 C 122.7 12.664 122.434 12.11 122.073 11.62 C 121.733 11.161 121.295 10.783 120.792 10.514 C 120.289 10.244 119.694 10.109 119.011 10.109 C 118.346 10.109 117.771 10.244 117.284 10.514 C 116.798 10.783 116.408 11.148 116.111 11.606 C 115.815 12.065 115.594 12.6 115.449 13.211 C 115.306 13.823 115.233 14.48 115.233 15.181 C 115.233 15.882 115.31 16.543 115.463 17.164 C 115.616 17.784 115.855 18.329 116.179 18.796 C 116.495 19.257 116.915 19.636 117.406 19.902 C 117.901 20.172 118.481 20.307 119.146 20.307 C 119.829 20.307 120.418 20.173 120.914 19.902 C 121.402 19.638 121.822 19.264 122.141 18.809 C 122.466 18.351 122.707 17.816 122.871 17.204 C 123.031 16.593 123.113 15.936 123.113 15.235 Z  M 125.217 15.181 C 125.217 15.936 125.104 16.719 124.879 17.528 C 124.663 18.321 124.301 19.066 123.813 19.727 C 123.328 20.384 122.699 20.927 121.926 21.36 C 121.151 21.791 120.215 22.007 119.119 22.007 C 118.022 22.007 117.095 21.795 116.341 21.373 C 115.614 20.975 114.983 20.422 114.493 19.754 C 114.015 19.095 113.662 18.354 113.454 17.568 C 113.243 16.808 113.134 16.024 113.129 15.236 C 113.129 14.479 113.232 13.698 113.441 12.888 C 113.638 12.098 113.981 11.353 114.452 10.689 C 114.934 10.02 115.555 9.463 116.273 9.057 C 117.018 8.625 117.942 8.41 119.04 8.41 C 120.135 8.41 121.076 8.621 121.858 9.043 C 122.641 9.466 123.278 10.006 123.774 10.662 C 124.268 11.318 124.638 12.059 124.867 12.848 C 125.099 13.648 125.217 14.426 125.217 15.181 M 128.562 21.683 L 130.531 21.683 L 130.531 2.257 L 128.562 2.257 L 128.562 21.683 Z  M 141.458 15.532 L 140.891 15.532 C 140.19 15.532 139.547 15.581 138.963 15.68 C 138.378 15.779 137.873 15.946 137.452 16.179 C 137.047 16.396 136.703 16.712 136.453 17.097 C 136.209 17.474 136.09 17.933 136.09 18.473 C 136.09 18.814 136.153 19.102 136.277 19.335 C 136.404 19.57 136.561 19.759 136.75 19.902 C 136.94 20.046 137.146 20.15 137.37 20.212 C 137.596 20.276 137.807 20.307 138.005 20.307 C 138.743 20.307 139.398 20.136 139.975 19.795 C 140.555 19.449 141.06 18.99 141.459 18.446 L 141.459 15.532 L 141.458 15.532 Z  M 141.755 21.683 C 141.719 21.504 141.684 21.247 141.647 20.914 C 141.617 20.649 141.59 20.383 141.565 20.117 C 141.135 20.657 140.582 21.108 139.907 21.467 C 139.233 21.827 138.49 22.006 137.681 22.006 C 136.602 22.006 135.716 21.692 135.022 21.062 C 134.331 20.433 133.986 19.588 133.986 18.526 C 133.986 17.663 134.196 16.948 134.619 16.381 C 135.054 15.805 135.618 15.338 136.265 15.019 C 136.971 14.667 137.725 14.422 138.503 14.29 C 139.291 14.149 140.09 14.077 140.891 14.074 L 141.458 14.074 L 141.458 12.869 C 141.458 11.905 141.251 11.217 140.839 10.806 C 140.423 10.395 139.769 10.19 138.867 10.19 C 138.275 10.19 137.708 10.293 137.169 10.5 C 136.63 10.707 136.071 11.071 135.495 11.593 L 134.444 10.217 C 135.72 9.011 137.24 8.41 139.004 8.41 C 140.423 8.41 141.516 8.755 142.281 9.448 C 143.046 10.14 143.428 11.224 143.428 12.699 L 143.428 18.742 C 143.428 19.39 143.455 19.966 143.51 20.469 C 143.563 20.973 143.635 21.377 143.724 21.683 L 141.755 21.683 M 154.03 10.567 C 153.912 10.514 153.79 10.469 153.666 10.433 C 153.495 10.379 153.239 10.351 152.897 10.351 C 152.411 10.351 151.978 10.469 151.601 10.702 C 151.24 10.923 150.913 11.196 150.631 11.512 C 150.36 11.818 150.15 12.115 149.996 12.402 C 149.843 12.69 149.75 12.888 149.713 12.995 L 149.713 21.683 L 147.745 21.683 L 147.745 8.733 L 149.713 8.733 L 149.713 10.757 C 149.865 10.504 150.032 10.261 150.213 10.028 C 150.419 9.758 150.668 9.502 150.953 9.259 C 151.251 9.011 151.584 8.807 151.94 8.653 C 152.327 8.487 152.745 8.404 153.166 8.41 C 153.562 8.41 153.864 8.445 154.072 8.517 C 154.277 8.589 154.426 8.643 154.516 8.679 L 154.03 10.567 M 164.661 18.203 C 164.661 19.39 164.245 20.325 163.419 21.008 C 162.592 21.692 161.467 22.034 160.046 22.034 C 159.111 22.034 158.296 21.899 157.605 21.629 C 156.911 21.36 156.359 21.081 155.946 20.793 L 156.81 19.282 C 157.061 19.462 157.461 19.683 158.009 19.942 C 158.557 20.203 159.228 20.334 160.019 20.334 C 160.83 20.334 161.471 20.172 161.949 19.848 C 162.424 19.525 162.663 19.065 162.663 18.473 C 162.663 17.879 162.424 17.416 161.949 17.083 C 161.472 16.751 160.757 16.377 159.804 15.963 C 159.326 15.76 158.858 15.535 158.401 15.289 C 157.989 15.07 157.608 14.798 157.268 14.48 C 156.947 14.179 156.69 13.816 156.512 13.414 C 156.331 13.009 156.243 12.528 156.243 11.97 C 156.243 10.963 156.602 10.118 157.321 9.435 C 158.041 8.751 159.047 8.41 160.343 8.41 C 160.884 8.41 161.363 8.458 161.787 8.557 C 162.209 8.657 162.583 8.773 162.906 8.908 C 163.364 9.091 163.791 9.341 164.175 9.65 L 163.203 11.08 C 162.968 10.901 162.614 10.693 162.138 10.459 C 161.661 10.226 161.054 10.108 160.315 10.108 C 159.633 10.108 159.103 10.267 158.724 10.581 C 158.347 10.895 158.158 11.332 158.158 11.889 C 158.158 12.501 158.391 12.964 158.86 13.278 C 159.326 13.594 159.92 13.904 160.641 14.21 C 161.163 14.426 161.666 14.655 162.15 14.897 C 162.636 15.14 163.064 15.415 163.432 15.721 C 163.801 16.026 164.097 16.381 164.323 16.787 C 164.546 17.191 164.661 17.663 164.661 18.203 M 175.992 21.683 L 175.992 12.834 C 175.992 12.024 175.825 11.382 175.492 10.905 C 175.159 10.429 174.562 10.19 173.698 10.19 C 173.194 10.19 172.73 10.298 172.308 10.514 C 171.885 10.73 171.507 10.972 171.174 11.242 C 170.842 11.511 170.572 11.777 170.365 12.038 C 170.158 12.299 170.019 12.474 169.947 12.564 L 169.947 21.682 L 167.977 21.682 L 167.977 2.258 L 169.947 2.258 L 169.947 10.594 C 170.09 10.415 170.285 10.199 170.528 9.947 C 170.796 9.675 171.095 9.435 171.418 9.232 C 171.799 8.992 172.207 8.798 172.633 8.653 C 173.123 8.485 173.638 8.402 174.156 8.409 C 174.839 8.409 175.42 8.517 175.895 8.733 C 176.346 8.929 176.748 9.224 177.07 9.596 C 177.375 9.956 177.6 10.383 177.744 10.878 C 177.89 11.391 177.963 11.922 177.96 12.455 L 177.96 21.682 L 175.992 21.682 M 182.439 21.683 L 182.439 8.733 L 184.437 8.733 L 184.437 21.683 L 182.439 21.683 Z  M 183.438 3.391 C 183.849 3.391 184.197 3.53 184.476 3.809 C 184.755 4.088 184.893 4.435 184.893 4.848 C 184.893 5.262 184.755 5.608 184.476 5.886 C 184.197 6.166 183.849 6.305 183.437 6.305 C 183.023 6.305 182.677 6.166 182.399 5.886 C 182.12 5.609 181.98 5.262 181.98 4.848 C 181.98 4.435 182.12 4.088 182.399 3.809 C 182.677 3.53 183.023 3.391 183.437 3.391 M 197.898 15.235 C 197.898 14.516 197.825 13.846 197.682 13.225 C 197.538 12.605 197.322 12.07 197.034 11.62 C 196.759 11.182 196.379 10.821 195.928 10.567 C 195.477 10.315 194.949 10.19 194.337 10.19 C 193.918 10.184 193.501 10.257 193.109 10.405 C 192.762 10.538 192.432 10.711 192.125 10.919 C 191.866 11.091 191.627 11.29 191.409 11.512 C 191.26 11.664 191.12 11.827 190.991 11.997 L 190.991 19.12 C 191.297 19.389 191.688 19.655 192.164 19.916 C 192.64 20.177 193.284 20.307 194.095 20.307 C 194.723 20.307 195.27 20.181 195.738 19.93 C 196.213 19.673 196.62 19.307 196.926 18.863 C 197.25 18.405 197.493 17.866 197.655 17.245 C 197.822 16.588 197.904 15.913 197.898 15.235 L 197.898 15.235 Z  M 200.002 15.181 C 200.002 16.206 199.863 17.137 199.583 17.973 C 199.306 18.81 198.909 19.525 198.396 20.118 C 197.897 20.702 197.281 21.175 196.589 21.508 C 195.896 21.84 195.127 22.007 194.283 22.007 C 193.365 22.007 192.652 21.872 192.138 21.602 C 191.626 21.333 191.243 21.09 190.991 20.873 L 190.991 27.592 L 189.021 27.592 L 189.021 8.733 L 190.991 8.733 L 190.991 10.136 C 191.334 9.723 191.81 9.331 192.422 8.962 C 193.033 8.594 193.806 8.41 194.741 8.41 C 196.324 8.41 197.595 8.998 198.558 10.176 C 199.521 11.354 200.002 13.022 200.002 15.181" fill="rgb(79,76,76)"/><path d=" M 68.865 38.457 C 68.865 39.647 68.567 40.592 67.972 41.289 C 67.377 41.985 66.445 42.335 65.177 42.335 C 64.514 42.335 63.943 42.243 63.464 42.057 C 62.987 41.871 62.594 41.613 62.287 41.281 C 61.972 40.936 61.741 40.523 61.614 40.074 C 61.468 39.568 61.396 39.043 61.402 38.516 L 61.402 32.413 L 62.543 32.413 L 62.543 38.378 C 62.543 39.394 62.757 40.148 63.188 40.636 C 63.616 41.125 64.289 41.368 65.206 41.368 C 66.084 41.368 66.735 41.109 67.16 40.592 C 67.584 40.074 67.796 39.405 67.796 38.584 L 67.796 32.413 L 68.865 32.413 L 68.865 38.457 M 75.509 42.158 L 75.509 37.359 C 75.509 36.92 75.419 36.572 75.239 36.312 C 75.058 36.055 74.733 35.924 74.265 35.924 C 73.866 35.924 73.49 36.055 73.138 36.312 C 72.793 36.566 72.487 36.869 72.231 37.212 L 72.231 42.158 L 71.163 42.158 L 71.163 35.134 L 72.231 35.134 L 72.231 36.144 C 72.543 35.744 72.892 35.446 73.278 35.251 C 73.66 35.057 74.084 34.956 74.514 34.958 C 74.885 34.958 75.199 35.017 75.458 35.134 C 75.716 35.251 75.928 35.408 76.094 35.604 C 76.261 35.798 76.382 36.03 76.461 36.298 C 76.538 36.565 76.577 36.852 76.577 37.154 L 76.577 42.158 L 75.509 42.158 M 79.007 42.158 L 79.007 35.134 L 80.09 35.134 L 80.09 42.158 L 79.007 42.158 Z  M 79.548 32.237 C 79.773 32.237 79.96 32.313 80.111 32.464 C 80.262 32.615 80.339 32.802 80.339 33.028 C 80.339 33.251 80.263 33.439 80.112 33.591 C 79.961 33.743 79.773 33.818 79.548 33.818 C 79.324 33.818 79.136 33.743 78.985 33.591 C 78.834 33.439 78.758 33.251 78.758 33.028 C 78.758 32.802 78.833 32.616 78.985 32.464 C 79.136 32.312 79.323 32.237 79.547 32.237 M 84.817 40.755 L 86.777 35.134 L 87.875 35.134 L 85.285 42.158 L 84.29 42.158 L 81.612 35.134 L 82.782 35.134 L 84.787 40.755 L 84.817 40.755 Z  M 93.554 37.768 C 93.545 37.526 93.508 37.285 93.443 37.051 C 93.384 36.835 93.285 36.632 93.151 36.453 C 93.015 36.273 92.836 36.129 92.631 36.034 C 92.417 35.932 92.158 35.881 91.856 35.881 C 91.29 35.881 90.851 36.056 90.538 36.408 C 90.226 36.759 90.021 37.213 89.924 37.768 L 93.554 37.768 L 93.554 37.768 Z  M 89.866 38.617 C 89.875 38.988 89.922 39.341 90.004 39.677 C 90.087 40.015 90.216 40.314 90.392 40.572 C 90.568 40.831 90.795 41.034 91.073 41.185 C 91.351 41.338 91.685 41.413 92.076 41.413 C 92.319 41.413 92.544 41.388 92.749 41.34 C 92.953 41.29 93.137 41.234 93.297 41.171 C 93.458 41.107 93.599 41.04 93.722 40.966 C 93.844 40.893 93.944 40.833 94.022 40.782 L 94.461 41.617 C 94.348 41.692 94.233 41.763 94.116 41.83 C 93.953 41.923 93.782 42.002 93.605 42.064 C 93.38 42.144 93.15 42.207 92.917 42.254 C 92.63 42.311 92.339 42.338 92.046 42.335 C 91.49 42.335 91.004 42.237 90.59 42.042 C 90.188 41.857 89.833 41.585 89.551 41.245 C 89.266 40.895 89.055 40.492 88.929 40.059 C 88.792 39.606 88.724 39.121 88.724 38.603 C 88.724 38.085 88.802 37.605 88.958 37.161 C 89.102 36.739 89.323 36.347 89.61 36.005 C 90.173 35.333 91.008 34.949 91.885 34.959 C 92.353 34.959 92.771 35.046 93.137 35.221 C 93.501 35.398 93.802 35.647 94.036 35.968 C 94.27 36.291 94.438 36.675 94.541 37.125 C 94.643 37.573 94.67 38.071 94.623 38.617 L 89.866 38.617 M 99.919 36.129 C 99.855 36.101 99.789 36.076 99.722 36.056 C 99.586 36.022 99.445 36.007 99.304 36.012 C 99.056 36.008 98.813 36.074 98.602 36.203 C 98.406 36.323 98.229 36.47 98.076 36.641 C 97.865 36.879 97.697 37.151 97.577 37.446 L 97.577 42.158 L 96.51 42.158 L 96.51 35.134 L 97.577 35.134 L 97.577 36.233 C 97.659 36.095 97.75 35.963 97.848 35.837 C 97.967 35.684 98.102 35.545 98.251 35.421 C 98.407 35.288 98.585 35.178 98.785 35.091 C 98.995 35.001 99.222 34.956 99.451 34.959 C 99.665 34.959 99.829 34.979 99.941 35.017 C 100.053 35.057 100.134 35.086 100.182 35.105 L 99.919 36.129 M 105.686 40.271 C 105.686 40.915 105.459 41.423 105.012 41.794 C 104.565 42.165 103.952 42.349 103.182 42.349 C 102.675 42.349 102.233 42.276 101.857 42.129 C 101.482 41.983 101.182 41.832 100.958 41.677 L 101.426 40.857 C 101.562 40.955 101.78 41.074 102.078 41.216 C 102.374 41.357 102.738 41.428 103.168 41.428 C 103.607 41.428 103.955 41.34 104.213 41.164 C 104.473 40.987 104.602 40.739 104.602 40.417 C 104.602 40.095 104.473 39.846 104.213 39.664 C 103.955 39.484 103.568 39.282 103.051 39.057 C 102.792 38.946 102.538 38.824 102.29 38.691 C 102.067 38.572 101.86 38.425 101.676 38.253 C 101.501 38.089 101.362 37.892 101.265 37.674 C 101.167 37.453 101.118 37.193 101.118 36.891 C 101.118 36.344 101.314 35.886 101.704 35.514 C 102.095 35.144 102.642 34.959 103.343 34.959 C 103.635 34.959 103.897 34.986 104.126 35.04 C 104.355 35.094 104.558 35.156 104.734 35.229 C 104.982 35.329 105.214 35.465 105.422 35.632 L 104.895 36.408 C 104.713 36.278 104.52 36.165 104.317 36.071 C 104.058 35.945 103.729 35.881 103.33 35.881 C 102.957 35.881 102.67 35.967 102.466 36.137 C 102.262 36.308 102.157 36.543 102.157 36.847 C 102.157 37.179 102.285 37.43 102.539 37.601 C 102.791 37.771 103.115 37.939 103.505 38.104 C 103.789 38.222 104.059 38.346 104.324 38.479 C 104.588 38.611 104.819 38.759 105.019 38.925 C 105.218 39.09 105.38 39.283 105.501 39.503 C 105.623 39.722 105.686 39.978 105.686 40.271 M 107.617 42.158 L 107.617 35.134 L 108.699 35.134 L 108.699 42.158 L 107.617 42.158 Z  M 108.157 32.237 C 108.383 32.237 108.57 32.313 108.721 32.464 C 108.872 32.615 108.948 32.802 108.948 33.028 C 108.948 33.251 108.873 33.439 108.721 33.591 C 108.569 33.743 108.383 33.818 108.157 33.818 C 107.947 33.823 107.743 33.741 107.595 33.591 C 107.445 33.443 107.363 33.239 107.367 33.028 C 107.362 32.817 107.444 32.613 107.594 32.464 C 107.742 32.314 107.946 32.232 108.157 32.237 M 114.744 41.91 C 114.635 41.98 114.458 42.068 114.209 42.174 C 113.959 42.28 113.646 42.335 113.265 42.335 C 112.68 42.335 112.242 42.171 111.949 41.844 C 111.656 41.517 111.508 41.061 111.508 40.477 L 111.508 35.983 L 110.352 35.983 L 110.352 35.134 L 111.508 35.134 L 111.508 33.129 L 112.577 33.129 L 112.577 35.134 L 114.348 35.134 L 114.348 35.982 L 112.578 35.982 L 112.578 40.374 C 112.578 40.725 112.635 40.986 112.754 41.157 C 112.87 41.326 113.085 41.413 113.396 41.413 C 113.621 41.413 113.821 41.375 113.997 41.296 C 114.172 41.219 114.29 41.155 114.347 41.105 L 114.744 41.91 M 118.944 43.096 C 118.828 43.413 118.696 43.723 118.547 44.025 C 118.402 44.323 118.221 44.586 118.006 44.815 C 117.792 45.044 117.534 45.225 117.23 45.357 C 116.928 45.489 116.562 45.554 116.134 45.554 C 115.947 45.554 115.806 45.548 115.709 45.532 C 115.625 45.521 115.542 45.504 115.461 45.482 L 115.607 44.587 C 115.655 44.598 115.713 44.608 115.781 44.618 C 115.851 44.627 115.973 44.632 116.148 44.632 C 116.646 44.632 117.015 44.498 117.261 44.229 C 117.504 43.961 117.723 43.565 117.919 43.037 L 118.255 42.115 L 115.607 35.134 L 116.806 35.134 L 118.812 40.739 L 118.841 40.739 L 120.787 35.134 L 121.929 35.134 L 118.944 43.096 M 131.454 38.662 C 131.454 38.281 131.409 37.923 131.317 37.586 C 131.233 37.267 131.089 36.967 130.892 36.701 C 130.708 36.452 130.47 36.246 130.197 36.1 C 129.923 35.954 129.601 35.881 129.232 35.881 C 128.871 35.881 128.558 35.954 128.296 36.1 C 128.037 36.241 127.818 36.445 127.659 36.693 C 127.49 36.96 127.368 37.254 127.3 37.563 C 127.221 37.895 127.182 38.253 127.182 38.633 C 127.182 39.013 127.223 39.371 127.306 39.708 C 127.39 40.044 127.518 40.34 127.694 40.594 C 127.871 40.847 128.093 41.048 128.361 41.193 C 128.629 41.34 128.944 41.413 129.305 41.413 C 129.675 41.413 129.995 41.34 130.263 41.193 C 130.532 41.048 130.754 40.85 130.931 40.601 C 131.113 40.336 131.246 40.041 131.324 39.729 C 131.413 39.38 131.457 39.022 131.454 38.662 Z  M 132.598 38.633 C 132.598 39.043 132.536 39.466 132.415 39.905 C 132.297 40.335 132.101 40.739 131.836 41.097 C 131.563 41.463 131.214 41.765 130.812 41.983 C 130.392 42.219 129.883 42.335 129.29 42.335 C 128.694 42.335 128.191 42.221 127.783 41.991 C 127.388 41.775 127.046 41.476 126.779 41.114 C 126.521 40.756 126.33 40.354 126.217 39.927 C 126.099 39.493 126.041 39.071 126.041 38.662 C 126.041 38.253 126.098 37.827 126.209 37.387 C 126.316 36.959 126.502 36.555 126.758 36.196 C 127.019 35.833 127.356 35.531 127.746 35.311 C 128.149 35.076 128.65 34.959 129.245 34.959 C 129.839 34.959 130.35 35.075 130.774 35.304 C 131.2 35.532 131.545 35.826 131.813 36.182 C 132.082 36.538 132.28 36.932 132.407 37.366 C 132.534 37.8 132.598 38.222 132.598 38.633 M 138.1 32.559 C 137.998 32.522 137.896 32.488 137.793 32.456 C 137.592 32.402 137.385 32.378 137.178 32.384 C 136.71 32.384 136.347 32.534 136.095 32.837 C 135.842 33.139 135.714 33.583 135.714 34.168 L 135.714 35.134 L 137.5 35.134 L 137.5 35.982 L 135.714 35.982 L 135.714 42.158 L 134.645 42.158 L 134.645 35.983 L 133.476 35.983 L 133.476 35.134 L 134.645 35.134 L 134.645 34.095 C 134.645 33.286 134.868 32.641 135.312 32.163 C 135.756 31.685 136.387 31.446 137.208 31.446 C 137.548 31.446 137.815 31.471 138.004 31.52 C 138.195 31.568 138.319 31.608 138.378 31.638 L 138.1 32.558 M 149.589 41.354 C 149.333 41.588 148.951 41.811 148.439 42.02 C 147.926 42.23 147.329 42.335 146.645 42.335 C 145.885 42.335 145.21 42.193 144.619 41.91 C 144.048 41.642 143.54 41.258 143.126 40.782 C 142.716 40.307 142.402 39.755 142.204 39.16 C 141.994 38.547 141.888 37.904 141.889 37.257 C 141.889 36.594 141.997 35.959 142.211 35.353 C 142.417 34.766 142.735 34.224 143.149 33.758 C 143.569 33.292 144.079 32.917 144.648 32.654 C 145.238 32.377 145.908 32.237 146.661 32.237 C 147.284 32.237 147.807 32.302 148.227 32.439 C 148.646 32.572 149.036 32.753 149.396 32.98 L 148.825 33.847 C 148.542 33.651 148.224 33.496 147.867 33.378 C 147.51 33.261 147.1 33.203 146.631 33.203 C 146.046 33.203 145.53 33.315 145.086 33.539 C 144.657 33.751 144.28 34.055 143.981 34.429 C 143.689 34.799 143.467 35.229 143.315 35.715 C 143.164 36.207 143.088 36.72 143.089 37.235 C 143.089 37.77 143.163 38.286 143.308 38.784 C 143.455 39.279 143.678 39.721 143.976 40.106 C 144.275 40.492 144.657 40.806 145.093 41.025 C 145.543 41.255 146.069 41.368 146.675 41.368 C 147.203 41.368 147.66 41.29 148.051 41.136 C 148.419 40.993 148.759 40.789 149.06 40.535 L 149.589 41.354 M 154.813 38.823 L 154.505 38.823 C 154.124 38.823 153.776 38.85 153.458 38.903 C 153.141 38.957 152.867 39.047 152.639 39.174 C 152.419 39.292 152.232 39.463 152.096 39.672 C 151.966 39.877 151.9 40.124 151.9 40.417 C 151.9 40.604 151.932 40.76 152.003 40.886 C 152.071 41.013 152.155 41.114 152.259 41.193 C 152.361 41.271 152.474 41.326 152.595 41.361 C 152.716 41.396 152.831 41.413 152.939 41.413 C 153.338 41.413 153.695 41.321 154.006 41.136 C 154.321 40.948 154.595 40.699 154.813 40.403 L 154.813 38.823 L 154.813 38.823 Z  M 154.973 42.158 C 154.947 42.021 154.928 41.882 154.914 41.742 C 154.899 41.599 154.884 41.455 154.87 41.311 C 154.624 41.614 154.317 41.863 153.97 42.042 C 153.603 42.237 153.201 42.335 152.763 42.335 C 152.177 42.335 151.696 42.164 151.322 41.822 C 150.946 41.481 150.759 41.023 150.759 40.446 C 150.759 39.978 150.871 39.591 151.102 39.283 C 151.331 38.976 151.627 38.731 151.995 38.545 C 152.361 38.359 152.766 38.227 153.21 38.149 C 153.637 38.073 154.07 38.034 154.505 38.033 L 154.813 38.033 L 154.813 37.378 C 154.813 36.854 154.699 36.482 154.474 36.259 C 154.251 36.036 153.895 35.925 153.407 35.925 C 153.092 35.923 152.779 35.981 152.485 36.095 C 152.192 36.206 151.889 36.402 151.577 36.685 L 151.006 35.94 C 151.699 35.285 152.523 34.959 153.48 34.959 C 154.251 34.959 154.844 35.146 155.258 35.522 C 155.672 35.898 155.88 36.486 155.88 37.287 L 155.88 40.564 C 155.88 40.915 155.894 41.227 155.923 41.501 C 155.954 41.775 155.992 41.994 156.042 42.158 L 154.974 42.158 M 158.25 42.158 L 159.319 42.158 L 159.319 31.621 L 158.25 31.621 L 158.25 42.158 Z  M 161.836 42.158 L 161.836 35.134 L 162.92 35.134 L 162.92 42.158 L 161.836 42.158 Z  M 162.377 32.237 C 162.601 32.237 162.79 32.313 162.94 32.464 C 163.091 32.612 163.174 32.817 163.168 33.028 C 163.173 33.239 163.091 33.443 162.94 33.591 C 162.79 33.742 162.601 33.818 162.377 33.818 C 162.153 33.818 161.965 33.743 161.814 33.591 C 161.663 33.439 161.588 33.251 161.588 33.028 C 161.588 32.802 161.663 32.616 161.814 32.464 C 161.966 32.312 162.154 32.237 162.377 32.237 Z  M 169.125 32.559 C 169.023 32.522 168.92 32.488 168.817 32.456 C 168.616 32.402 168.409 32.378 168.202 32.384 C 167.734 32.384 167.371 32.534 167.12 32.837 C 166.865 33.139 166.739 33.583 166.739 34.168 L 166.739 35.134 L 168.525 35.134 L 168.525 35.982 L 166.739 35.982 L 166.739 42.158 L 165.67 42.158 L 165.67 35.983 L 164.498 35.983 L 164.498 35.134 L 165.67 35.134 L 165.67 34.095 C 165.67 33.286 165.894 32.641 166.336 32.163 C 166.78 31.685 167.411 31.446 168.232 31.446 C 168.573 31.446 168.839 31.471 169.029 31.52 C 169.219 31.568 169.343 31.608 169.402 31.638 L 169.125 32.558 M 174.773 38.662 C 174.776 38.299 174.729 37.936 174.634 37.586 C 174.549 37.267 174.406 36.967 174.21 36.701 C 174.025 36.452 173.787 36.247 173.514 36.1 C 173.242 35.954 172.919 35.881 172.548 35.881 C 172.187 35.881 171.876 35.954 171.611 36.1 C 171.353 36.241 171.135 36.446 170.976 36.693 C 170.808 36.961 170.686 37.255 170.616 37.563 C 170.537 37.895 170.5 38.253 170.5 38.633 C 170.5 39.013 170.541 39.371 170.622 39.708 C 170.707 40.044 170.836 40.34 171.011 40.594 C 171.187 40.847 171.411 41.048 171.677 41.193 C 171.946 41.34 172.26 41.413 172.622 41.413 C 172.993 41.413 173.311 41.34 173.58 41.193 C 173.848 41.048 174.069 40.85 174.246 40.601 C 174.423 40.352 174.554 40.062 174.641 39.729 C 174.729 39.398 174.773 39.043 174.773 38.662 L 174.773 38.662 Z  M 175.914 38.633 C 175.914 39.043 175.854 39.466 175.731 39.905 C 175.614 40.335 175.418 40.739 175.153 41.097 C 174.89 41.454 174.547 41.75 174.13 41.983 C 173.71 42.219 173.203 42.335 172.607 42.335 C 172.012 42.335 171.509 42.221 171.098 41.991 C 170.704 41.776 170.363 41.476 170.099 41.114 C 169.839 40.756 169.648 40.354 169.535 39.927 C 169.42 39.515 169.361 39.09 169.358 38.662 C 169.358 38.253 169.415 37.827 169.527 37.387 C 169.638 36.949 169.82 36.551 170.076 36.196 C 170.329 35.839 170.658 35.545 171.064 35.311 C 171.467 35.076 171.968 34.959 172.563 34.959 C 173.158 34.959 173.668 35.075 174.091 35.304 C 174.517 35.532 174.862 35.826 175.131 36.182 C 175.4 36.538 175.597 36.932 175.724 37.366 C 175.851 37.8 175.914 38.222 175.914 38.633 M 181.108 36.129 C 181.044 36.1 180.978 36.076 180.911 36.056 C 180.775 36.022 180.635 36.007 180.495 36.012 C 180.247 36.008 180.004 36.074 179.792 36.203 C 179.596 36.323 179.419 36.47 179.265 36.641 C 179.118 36.808 179.004 36.969 178.923 37.125 C 178.863 37.228 178.811 37.336 178.768 37.447 L 178.768 42.158 L 177.699 42.158 L 177.699 35.134 L 178.768 35.134 L 178.768 36.233 C 178.837 36.116 178.926 35.983 179.039 35.837 C 179.151 35.69 179.285 35.552 179.441 35.421 C 179.596 35.29 179.775 35.178 179.976 35.091 C 180.174 35.003 180.398 34.959 180.64 34.959 C 180.855 34.959 181.019 34.979 181.131 35.017 C 181.244 35.057 181.324 35.086 181.373 35.105 L 181.108 36.129 M 187.095 42.158 L 187.095 37.359 C 187.095 36.92 187.005 36.572 186.825 36.312 C 186.643 36.055 186.32 35.924 185.852 35.924 C 185.45 35.924 185.074 36.055 184.724 36.312 C 184.379 36.566 184.073 36.869 183.816 37.212 L 183.816 42.158 L 182.749 42.158 L 182.749 35.134 L 183.816 35.134 L 183.816 36.144 C 184.128 35.744 184.477 35.446 184.863 35.251 C 185.248 35.057 185.659 34.958 186.1 34.958 C 186.47 34.958 186.785 35.017 187.044 35.134 C 187.303 35.251 187.514 35.408 187.682 35.604 C 187.846 35.798 187.967 36.03 188.046 36.298 C 188.124 36.565 188.163 36.852 188.163 37.154 L 188.163 42.158 L 187.094 42.158 M 190.592 42.158 L 190.592 35.134 L 191.675 35.134 L 191.675 42.158 L 190.592 42.158 Z  M 191.133 32.237 C 191.358 32.237 191.547 32.313 191.697 32.464 C 191.848 32.612 191.93 32.817 191.924 33.028 C 191.929 33.239 191.847 33.443 191.697 33.591 C 191.548 33.741 191.344 33.823 191.133 33.818 C 190.91 33.818 190.721 33.743 190.57 33.591 C 190.419 33.439 190.343 33.251 190.343 33.028 C 190.343 32.802 190.419 32.616 190.57 32.464 C 190.722 32.312 190.91 32.237 191.133 32.237 Z  M 197.661 38.823 L 197.354 38.823 C 196.973 38.823 196.624 38.85 196.308 38.903 C 196.021 38.946 195.744 39.038 195.488 39.174 C 195.268 39.291 195.082 39.463 194.947 39.672 C 194.814 39.877 194.748 40.124 194.748 40.417 C 194.748 40.604 194.783 40.76 194.85 40.886 C 194.919 41.013 195.004 41.114 195.108 41.193 C 195.208 41.271 195.322 41.326 195.444 41.361 C 195.565 41.396 195.68 41.413 195.788 41.413 C 196.188 41.413 196.543 41.321 196.856 41.136 C 197.17 40.947 197.444 40.698 197.661 40.403 L 197.661 38.823 Z  M 197.821 42.158 C 197.796 42.021 197.776 41.882 197.763 41.742 C 197.747 41.599 197.732 41.455 197.719 41.311 C 197.473 41.613 197.167 41.862 196.821 42.042 C 196.454 42.237 196.052 42.335 195.611 42.335 C 195.027 42.335 194.546 42.164 194.172 41.822 C 193.796 41.481 193.607 41.023 193.607 40.446 C 193.607 39.978 193.722 39.591 193.951 39.283 C 194.18 38.976 194.479 38.731 194.844 38.545 C 195.208 38.36 195.614 38.227 196.057 38.149 C 196.485 38.073 196.919 38.034 197.354 38.033 L 197.661 38.033 L 197.661 37.378 C 197.661 36.854 197.548 36.482 197.324 36.259 C 197.1 36.036 196.744 35.925 196.256 35.925 C 195.933 35.925 195.627 35.981 195.335 36.095 C 195.041 36.206 194.74 36.402 194.426 36.685 L 193.855 35.94 C 194.549 35.285 195.372 34.959 196.329 34.959 C 197.1 34.959 197.692 35.146 198.107 35.522 C 198.522 35.898 198.731 36.486 198.731 37.287 L 198.731 40.564 C 198.731 40.915 198.743 41.227 198.773 41.501 C 198.803 41.775 198.841 41.994 198.891 42.158 L 197.821 42.158 Z " fill="rgb(100,102,107)"/></g></svg>