<?xml version="1.0" encoding="UTF-8"?>
<svg width="278px" height="64px" viewBox="0 0 278 64" version="1.1" xmlns="http://www.w3.org/2000/svg" xmlns:xlink="http://www.w3.org/1999/xlink">
    <!-- Generator: Sketch 43.2 (39069) - http://www.bohemiancoding.com/sketch -->
    <title>merritt_logo_no_tagline</title>
    <desc>Created with Sketch.</desc>
    <defs></defs>
    <g id="Page-1" stroke="none" stroke-width="1" fill="none" fill-rule="evenodd">
        <g id="merritt_logo_no_tagline" fill-rule="nonzero">
            <path d="M44,59.8 C44,59.7 43.6,54.3 41.1,48 C38.6,41.7 35.1,38.1 35,38 C34.4,37.4 33.6,37.1 32.9,37.1 C32.1,37.1 31.4,37.4 30.8,38 C30.7,38.1 27.2,41.7 24.7,48 C22.2,54.3 21.8,59.7 21.8,59.8 L21.8,60.5 C21.8,63.9 27.3,64.1 27.5,60 L27.5,59.8 L27.6,59 C27.6,59 27.7,58 27.9,56.4 C28.2,54.8 28.7,52.6 29.5,50.5 C30.3,48.4 31.4,46.7 32.2,45.6 C32.5,45.2 33.4,45.2 33.7,45.6 C34.5,46.7 35.5,48.4 36.4,50.5 C37.2,52.6 37.8,54.8 38,56.4 C38.3,58 38.3,59 38.3,59 L38.4,59.8 L38.4,60 C38.5,64.1 44,64 44.1,60.5 L44,59.8 L44,59.8 Z M62.9,29.5 C62.8,29.5 57.6,28.2 50.9,28.6 C44.2,29.1 39.7,31.4 39.6,31.4 C38.9,31.8 38.3,32.4 38.1,33.1 C37.9,33.8 37.9,34.7 38.3,35.4 C38.4,35.5 40.7,40 45.8,44.4 C50.9,48.7 55.9,50.8 56,50.8 L56.6,51 C59.8,52 61.7,46.8 57.8,45.4 L57.6,45.3 L57,45.2 C57,45.2 56.1,44.8 54.6,44.1 C53.2,43.3 51.3,42.2 49.6,40.7 C47.9,39.2 46.6,37.7 45.8,36.6 C45.5,36.2 45.8,35.3 46.3,35.1 C47.6,34.7 49.5,34.2 51.8,34 C54,33.8 56.2,34 57.9,34.3 C59.5,34.5 60.5,34.8 60.5,34.8 L61.3,35 L61.5,35 C65.4,36.2 67,30.8 63.8,29.7 L62.9,29.5 L62.9,29.5 Z" id="Shape" fill="#F08B1D"></path>
            <path d="M40.2,1.9 C40.1,2 37.3,6.6 35.7,13.1 C34.1,19.7 34.8,24.7 34.9,24.8 C35,25.6 35.5,26.3 36.1,26.8 C36.7,27.2 37.5,27.5 38.3,27.3 C38.4,27.3 43.4,26.5 49.1,22.9 C54.8,19.3 58.2,15.2 58.3,15.1 L58.7,14.6 C60.7,11.8 56.3,8.4 53.8,11.7 L53.7,11.8 L53.2,12.4 C53.2,12.4 52.6,13.2 51.4,14.3 C50.2,15.4 48.6,16.9 46.7,18.1 C44.8,19.3 43,20.1 41.7,20.5 C41.2,20.7 40.5,20.1 40.5,19.6 C40.5,18.2 40.6,16.2 41.2,14 C41.7,11.8 42.6,9.7 43.3,8.3 C44,6.8 44.6,6 44.6,6 L45,5.3 L45.1,5.1 C47.4,1.7 42.9,-1.4 40.8,1.3 L40.2,1.9 L40.2,1.9 Z" id="Shape" fill="#778E1E"></path>
            <path d="M7.3,15.2 C7.4,15.3 10.8,19.4 16.5,23 C22.2,26.6 27.1,27.4 27.3,27.4 C28.1,27.5 28.9,27.3 29.5,26.9 C30.1,26.4 30.6,25.7 30.7,24.9 C30.7,24.8 31.5,19.7 29.9,13.2 C28.2,6.7 25.3,2.1 25.3,2 L24.9,1.4 C22.9,-1.3 18.4,1.8 20.6,5.2 L20.7,5.4 L21.1,6.1 C21.1,6.1 21.6,7 22.4,8.4 C23.1,9.9 24,11.9 24.5,14.1 C25,16.3 25.2,18.3 25.2,19.7 C25.2,20.2 24.4,20.8 24,20.6 C22.7,20.2 20.9,19.4 19,18.2 C17.1,17 15.4,15.5 14.2,14.4 C13,13.3 12.4,12.5 12.4,12.5 L11.9,11.9 L11.8,11.8 C9.3,8.6 5,11.9 6.9,14.7 L7.3,15.2 L7.3,15.2 Z M9.6,51 C9.7,51 14.7,48.9 19.8,44.6 C24.9,40.2 27.2,35.7 27.3,35.6 C27.7,34.9 27.7,34 27.5,33.3 C27.3,32.6 26.7,31.9 26,31.6 C25.9,31.5 21.4,29.3 14.7,28.8 C8,28.3 2.8,29.7 2.7,29.7 L2.1,29.9 C-1.1,31 0.5,36.3 4.4,35.2 L4.6,35.2 L5.4,35 C5.4,35 6.4,34.7 8,34.5 C9.6,34.3 11.8,34.1 14.1,34.2 C16.3,34.4 18.2,34.8 19.6,35.3 C20.1,35.5 20.4,36.4 20.1,36.8 C19.3,37.9 18,39.4 16.3,40.9 C14.6,42.4 12.7,43.5 11.3,44.3 C9.9,45.1 8.9,45.4 8.9,45.4 L8.2,45.7 L8,45.8 C4.2,47.2 6,52.4 9.2,51.4 L9.6,51 L9.6,51 Z" id="Shape" fill="#F08B1D"></path>
            <path d="M104.5,55.1 L104.4,55.1 L82.6,3.3 L77.7,3.3 L77.7,58.9 L81.2,58.9 L81.2,7.5 L81.3,7.5 L102.7,58.9 L106.2,58.9 L127.3,7.5 L127.5,7.5 L127.5,58.9 L130.9,58.9 L130.9,3.3 L126,3.3 L104.5,55.1 L104.5,55.1 Z M156.1,18 C144,18 138.3,28.7 138.4,39.6 C138.2,50.7 144.4,59.8 156.1,59.8 C165.6,59.8 171.8,54.7 173.4,45.3 L170.4,45.3 C169,52.7 163.6,57.2 156.1,57.2 C146.2,57.2 141.2,48.6 141.4,39.2 L173.7,39.2 C174.2,27.9 168.6,18 156.1,18 L156.1,18 Z M141.4,36.7 C142,28.8 147.2,20.5 156.1,20.5 C165.3,20.5 170.6,28.3 170.7,36.7 L141.4,36.7 L141.4,36.7 Z M183.8,27.8 L183.6,27.8 L183.6,18.9 L180.6,18.9 L180.6,58.9 L183.6,58.9 L183.6,37 C183.9,31 185.2,28.5 188.1,25.5 C191.7,22 196,21.2 199.2,21.6 L199.2,18.6 C191.9,18.4 185.3,22.6 183.8,27.8 L183.8,27.8 Z M208.2,27.8 L208,27.8 L208,18.9 L205,18.9 L205,58.9 L208,58.9 L208,37 C208.3,31 209.6,28.5 212.5,25.5 C216.1,22 220.4,21.2 223.6,21.6 L223.6,18.6 C216.3,18.4 209.7,22.6 208.2,27.8 L208.2,27.8 Z M229.3,11.4 L232.2,11.4 L232.2,3.3 L229.3,3.3 L229.3,11.4 L229.3,11.4 Z M229.3,58.9 L232.2,58.9 L232.2,18.9 L229.3,18.9 L229.3,58.9 Z M248,6.4 L245,6.4 L245,18.9 L237.6,18.9 L237.6,21.5 L245,21.5 L245,49.5 C244.7,58.5 250.5,59.4 256.6,59 L256.6,56.4 C251,56.6 248,55.9 248,49.5 L248,21.5 L256.7,21.5 L256.7,18.9 L248,18.9 L248,6.4 Z M277.7,21.5 L277.7,18.9 L269,18.9 L269,6.4 L266,6.4 L266,18.9 L258.6,18.9 L258.6,21.5 L266,21.5 L266,49.5 C265.7,58.5 271.5,59.4 277.6,59 L277.6,56.4 C272,56.6 269,55.9 269,49.5 L269,21.5 L277.7,21.5 Z" id="Shape" fill="#778E1E"></path>
        </g>
    </g>
</svg>