<?xml version="1.0" standalone="no"?><!-- Generator: Gravit.io --><svg xmlns="http://www.w3.org/2000/svg" xmlns:xlink="http://www.w3.org/1999/xlink" style="isolation:isolate" viewBox="0 0 70 70" width="70" height="70"><defs><clipPath id="_clipPath_mRnGdBzJVOSfnzt7ZYk718Ye7NTkDAsm"><rect width="70" height="70"/></clipPath></defs><g clip-path="url(#_clipPath_mRnGdBzJVOSfnzt7ZYk718Ye7NTkDAsm)"><path d=" M 46 63.8 C 46 63.7 45.6 58.3 43.1 52 C 40.6 45.7 37.1 42.1 37 42 C 36.4 41.4 35.6 41.1 34.9 41.1 C 34.1 41.1 33.4 41.4 32.8 42 C 32.7 42.1 29.2 45.7 26.7 52 C 24.2 58.3 23.8 63.7 23.8 63.8 L 23.8 64.5 C 23.8 67.9 29.3 68.1 29.5 64 L 29.5 63.8 L 29.6 63 C 29.6 63 29.7 62 29.9 60.4 C 30.2 58.8 30.7 56.6 31.5 54.5 C 32.3 52.4 33.4 50.7 34.2 49.6 C 34.5 49.2 35.4 49.2 35.7 49.6 C 36.5 50.7 37.5 52.4 38.4 54.5 C 39.2 56.6 39.8 58.8 40 60.4 C 40.3 62 40.3 63 40.3 63 L 40.4 63.8 L 40.4 64 C 40.5 68.1 46 68 46.1 64.5 L 46 63.8 L 46 63.8 Z  M 64.9 33.5 C 64.8 33.5 59.6 32.2 52.9 32.6 C 46.2 33.1 41.7 35.4 41.6 35.4 C 40.9 35.8 40.3 36.4 40.1 37.1 C 39.9 37.8 39.9 38.7 40.3 39.4 C 40.4 39.5 42.7 44 47.8 48.4 C 52.9 52.7 57.9 54.8 58 54.8 L 58.6 55 C 61.8 56 63.7 50.8 59.8 49.4 L 59.6 49.3 L 59 49.2 C 59 49.2 58.1 48.8 56.6 48.1 C 55.2 47.3 53.3 46.2 51.6 44.7 C 49.9 43.2 48.6 41.7 47.8 40.6 C 47.5 40.2 47.8 39.3 48.3 39.1 C 49.6 38.7 51.5 38.2 53.8 38 C 56 37.8 58.2 38 59.9 38.3 C 61.5 38.5 62.5 38.8 62.5 38.8 L 63.3 39 L 63.5 39 C 67.4 40.2 69 34.8 65.8 33.7 L 64.9 33.5 L 64.9 33.5 Z " fill="rgb(240,139,29)"/><path d=" M 42.2 5.9 C 42.1 6 39.3 10.6 37.7 17.1 C 36.1 23.7 36.8 28.7 36.9 28.8 C 37 29.6 37.5 30.3 38.1 30.8 C 38.7 31.2 39.5 31.5 40.3 31.3 C 40.4 31.3 45.4 30.5 51.1 26.9 C 56.8 23.3 60.2 19.2 60.3 19.1 L 60.7 18.6 C 62.7 15.8 58.3 12.4 55.8 15.7 L 55.7 15.8 L 55.2 16.4 C 55.2 16.4 54.6 17.2 53.4 18.3 C 52.2 19.4 50.6 20.9 48.7 22.1 C 46.8 23.3 45 24.1 43.7 24.5 C 43.2 24.7 42.5 24.1 42.5 23.6 C 42.5 22.2 42.6 20.2 43.2 18 C 43.7 15.8 44.6 13.7 45.3 12.3 C 46 10.8 46.6 10 46.6 10 L 47 9.3 L 47.1 9.1 C 49.4 5.7 44.9 2.6 42.8 5.3 L 42.2 5.9 L 42.2 5.9 Z " fill="rgb(119,142,30)"/><path d=" M 9.3 19.2 C 9.4 19.3 12.8 23.4 18.5 27 C 24.2 30.6 29.1 31.4 29.3 31.4 C 30.1 31.5 30.9 31.3 31.5 30.9 C 32.1 30.4 32.6 29.7 32.7 28.9 C 32.7 28.8 33.5 23.7 31.9 17.2 C 30.2 10.7 27.3 6.1 27.3 6 L 26.9 5.4 C 24.9 2.7 20.4 5.8 22.6 9.2 L 22.7 9.4 L 23.1 10.1 C 23.1 10.1 23.6 11 24.4 12.4 C 25.1 13.9 26 15.9 26.5 18.1 C 27 20.3 27.2 22.3 27.2 23.7 C 27.2 24.2 26.4 24.8 26 24.6 C 24.7 24.2 22.9 23.4 21 22.2 C 19.1 21 17.4 19.5 16.2 18.4 C 15 17.3 14.4 16.5 14.4 16.5 L 13.9 15.9 L 13.8 15.8 C 11.3 12.6 7 15.9 8.9 18.7 L 9.3 19.2 L 9.3 19.2 Z  M 11.6 55 C 11.7 55 16.7 52.9 21.8 48.6 C 26.9 44.2 29.2 39.7 29.3 39.6 C 29.7 38.9 29.7 38 29.5 37.3 C 29.3 36.6 28.7 35.9 28 35.6 C 27.9 35.5 23.4 33.3 16.7 32.8 C 10 32.3 4.8 33.7 4.7 33.7 L 4.1 33.9 C 0.9 35 2.5 40.3 6.4 39.2 L 6.6 39.2 L 7.4 39 C 7.4 39 8.4 38.7 10 38.5 C 10 38.5 13.8 38.1 16.1 38.2 C 18.3 38.4 20.2 38.8 21.6 39.3 C 22.1 39.5 22.4 40.4 22.1 40.8 C 21.3 41.9 20 43.4 18.3 44.9 C 16.6 46.4 14.7 47.5 13.3 48.3 C 11.9 49.1 10.9 49.4 10.9 49.4 L 10.2 49.7 L 10 49.8 C 6.2 51.2 8 56.4 11.2 55.4 L 11.6 55 L 11.6 55 Z " fill="rgb(240,139,29)"/></g></svg>